<?xml version="1.0" encoding="utf-8"?>
<!-- Generator: Adobe Illustrator 25.3.0, SVG Export Plug-In . SVG Version: 6.00 Build 0)  -->
<svg version="1.0" id="Layer_1" xmlns="http://www.w3.org/2000/svg" xmlns:xlink="http://www.w3.org/1999/xlink" x="0px" y="0px"
	 viewBox="0 0 45 45" style="enable-background:new 0 0 45 45;" xml:space="preserve">
<style type="text/css">
	.st0{fill:#F5F9FF;}
	.st1{fill:#1F69F6;}
	.st2{fill:#171E29;}
	.st3{fill:none;}
</style>
<circle class="st0" cx="22.5" cy="22.5" r="22.5"/>
<g>
	<path class="st1" d="M-51.9,140.3h-16.6c-0.9,0-1.7,0.8-1.7,1.7v11.3c0,0.9,0.8,1.7,1.7,1.7h6.2v3.2h-4.3v1.4h12.6v-1.4h-4.3v-3.2
		h6.2c0.9,0,1.7-0.8,1.7-1.7V142C-50.2,141-50.9,140.3-51.9,140.3z M-51.6,153.3c0,0.1-0.1,0.2-0.2,0.2h-16.6
		c-0.1,0-0.2-0.1-0.2-0.2V142c0-0.1,0.1-0.2,0.2-0.2h16.6c0.1,0,0.2,0.1,0.2,0.2V153.3z"/>
	<rect x="-64.2" y="147.9" class="st2" width="1.2" height="2.9"/>
	<rect x="-61.9" y="146.7" class="st2" width="1.2" height="4.1"/>
	<rect x="-59.6" y="145.8" class="st2" width="1.2" height="5"/>
	<rect x="-57.3" y="144.4" class="st2" width="1.2" height="6.4"/>
</g>
<g>
	<g>
		<rect x="-106.5" y="10.8" class="st2" width="1.2" height="2.9"/>
		<rect x="-104.2" y="9.7" class="st2" width="1.2" height="4.1"/>
		<rect x="-101.9" y="8.8" class="st2" width="1.2" height="5"/>
		<rect x="-99.6" y="7.4" class="st2" width="1.2" height="6.4"/>
	</g>
	<g>
		<path class="st1" d="M-96.5,24h-11.9c-0.8,0-1.4-0.6-1.4-1.4V3.9c0-0.8,0.6-1.4,1.4-1.4h11.9c0.8,0,1.4,0.6,1.4,1.4v18.7
			C-95.1,23.4-95.7,24-96.5,24z M-108.2,22.5h11.6V4h-11.6V22.5z"/>
	</g>
	<circle class="st2" cx="-102.4" cy="20.8" r="0.9"/>
</g>
<g>
	<g>
		<path class="st1" d="M14.8,30.6l-0.5-0.4l0.1-0.3l0.9-3.9l0.1-0.1l11.1-13.1l3.5,3L18.8,28.9L18.7,29L14.8,30.6z M16.2,26.4
			l-0.7,2.8l2.7-1.1l10.4-12.3l-2-1.7L16.2,26.4z"/>
	</g>
	<g>
		<rect x="14.5" y="31.2" class="st2" width="16.2" height="1"/>
	</g>
	<g>
		<rect x="19.6" y="29.6" class="st2" width="11.1" height="1"/>
	</g>
	<g>
		<rect x="25.6" y="15.5" transform="matrix(0.6498 -0.7601 0.7601 0.6498 -3.6621 25.7245)" class="st2" width="1" height="2.7"/>
	</g>
</g>
<g>
	<g>
		<path class="st1" d="M-111.9,129.3H-129c-1.2,0-2.2-1-2.2-2.2v-11.9c0-1.2,1-2.2,2.2-2.2h17.8c0.8,0,1.5,0.7,1.5,1.5v12.6
			C-109.7,128.3-110.7,129.3-111.9,129.3z M-129,114.6c-0.3,0-0.6,0.3-0.6,0.6v11.9c0,0.3,0.3,0.6,0.6,0.6h17.1
			c0.3,0,0.6-0.3,0.6-0.6v-12.6H-129z"/>
	</g>
	<g>
		<path class="st2" d="M-124.2,118.5c0-0.1,0-0.1,0-0.2l0.6-0.4l-0.4-0.7l-0.7,0.2c-0.1-0.1-0.3-0.2-0.4-0.3l-0.2-0.7h-0.8l-0.2,0.7
			c-0.2,0.1-0.3,0.2-0.5,0.3l-0.6-0.2l-0.4,0.7l0.5,0.5v0.2c0,0.1,0,0.2,0,0.3l-0.5,0.5l0.4,0.7l0.7-0.2c0.1,0.1,0.3,0.2,0.4,0.2h0
			l0.2,0.7h0.8l0.2-0.7h-0.1c0.2-0.1,0.4-0.2,0.5-0.3l0,0.1l0.7,0.2l0.4-0.7l-0.6-0.5C-124.2,118.7-124.2,118.6-124.2,118.5z
			 M-125.7,119.1c-0.3,0-0.5-0.2-0.5-0.5s0.2-0.5,0.5-0.5c0.3,0,0.5,0.2,0.5,0.5S-125.4,119.1-125.7,119.1z"/>
		<path class="st2" d="M-122.4,121.3c0,0,0-0.1,0-0.1l0.4-0.3l-0.2-0.5l-0.5,0.1c-0.1-0.1-0.2-0.1-0.3-0.2l-0.1-0.5h-0.5l-0.1,0.5
			c-0.1,0-0.2,0.1-0.3,0.2l-0.4-0.1l-0.3,0.4l0.3,0.3v0.1c0,0.1,0,0.1,0,0.2l-0.4,0.3l0.3,0.4l0.5-0.2c0.1,0.1,0.2,0.1,0.3,0.2h0
			l0.1,0.5h0.5l0.1-0.5h0c0.1,0,0.2-0.1,0.4-0.2l0,0.1l0.5,0.1l0.2-0.5l-0.4-0.3C-122.4,121.4-122.4,121.3-122.4,121.3z
			 M-123.4,121.7c-0.2,0-0.4-0.2-0.4-0.4c0-0.2,0.2-0.4,0.4-0.4c0.2,0,0.4,0.2,0.4,0.4C-123.1,121.5-123.2,121.7-123.4,121.7z"/>
		<path class="st2" d="M-124.3,123.9c0-0.1,0-0.1,0-0.2l0.5-0.4l-0.3-0.6l-0.7,0.2c-0.1-0.1-0.3-0.2-0.4-0.2l-0.1-0.7h-0.7l-0.2,0.7
			c-0.2,0.1-0.3,0.2-0.4,0.3l-0.6-0.2l-0.4,0.6l0.5,0.4v0.2c0,0.1,0,0.2,0,0.2l-0.5,0.5l0.4,0.6l0.6-0.2c0.1,0.1,0.3,0.2,0.4,0.2h0
			l0.2,0.7h0.7l0.1-0.7h-0.1c0.2-0.1,0.3-0.2,0.5-0.3l0,0.1l0.7,0.2l0.3-0.6l-0.5-0.5C-124.3,124.1-124.3,124-124.3,123.9z
			 M-125.7,124.5c-0.3,0-0.5-0.2-0.5-0.5s0.2-0.5,0.5-0.5c0.3,0,0.5,0.2,0.5,0.5S-125.4,124.5-125.7,124.5z"/>
	</g>
	<g>
		<rect x="-117.9" y="118.2" class="st2" width="4.4" height="0.8"/>
	</g>
	<g>
		<rect x="-119.4" y="120.9" class="st2" width="5.9" height="0.8"/>
	</g>
	<g>
		<rect x="-121" y="123.6" class="st2" width="7.5" height="0.8"/>
	</g>
</g>
<g>
	<g>
		<path class="st1" d="M-83.5,123.3h-3.9V122h3.9c1.2,0,2.2-1,2.2-2.2c0-1-0.7-1.9-1.7-2.1l-0.5-0.1l0.1-0.6c0-0.2,0-0.4,0-0.5
			c0-3.2-2.6-5.8-5.8-5.8c-2.3,0-4.4,1.3-5.3,3.4l-0.2,0.5l-0.5-0.1c-0.3-0.1-0.6-0.1-0.9-0.1c-2.1,0-3.8,1.7-3.8,3.8
			c0,2.1,1.6,3.8,3.7,3.8l0.1,0h2.6v1.3l-2.7,0c-2.8-0.1-4.9-2.3-4.9-5.1c0-2.8,2.3-5.1,5.1-5.1c0.2,0,0.4,0,0.6,0
			c1.2-2.3,3.6-3.7,6.2-3.7c3.9,0,7.1,3.2,7.1,7.1c0,0,0,0.1,0,0.1c1.3,0.5,2.2,1.8,2.2,3.2C-80.1,121.7-81.6,123.3-83.5,123.3z"/>
	</g>
	<circle class="st2" cx="-91.6" cy="122.6" r="2.5"/>
	<g>
		<path class="st1" d="M-93.8,119.6l-0.7-1c0.1-0.1,0.2-0.2,0.4-0.2l0.6,1.1C-93.6,119.5-93.7,119.5-93.8,119.6z"/>
	</g>
	<g>
		<path class="st1" d="M-91.6,127.6c-1.1,0-2.1-0.3-2.9-0.9l0.7-1c0.6,0.5,1.4,0.7,2.2,0.7c2.1,0,3.7-1.7,3.7-3.7s-1.7-3.7-3.7-3.7
			c-0.7,0-1.3,0.2-1.9,0.5l-0.6-1.1c0.8-0.5,1.7-0.7,2.6-0.7c2.8,0,5,2.2,5,5S-88.8,127.6-91.6,127.6z"/>
	</g>
</g>
<g>
	<g>
		<path class="st1" d="M-53.6-51.9l2.3,3.1l-6.1,4.6l-1.7-2.1l-0.1-0.2l-0.9-1.1l-5.7,4.2L-66-43l-0.2,0.2l0.2,0.3l0.5,0.6l0.7-0.5
			l1.8-1.3l1.2-0.9l1.7-1.3l0,0l1.2,1.5l1.5,1.8l0.3-0.2l1.2-0.9l1.8-1.3l1.2-0.9l1.8-1.3l0.9-0.7l0.3,0.4l2.5,3.1l0.8-7.6H-53.6z
			 M-48.6-47.3l-1.1-1.3l-1.6-2.1h3L-48.6-47.3z"/>
	</g>
	<g>
		<polygon class="st2" points="-64.9,-40.8 -64.9,-35.9 -66,-35.9 -66,-40.9 -65.6,-40.2 		"/>
	</g>
	<g>
		<line class="st3" x1="-59" y1="-44.6" x2="-59.1" y2="-44.8"/>
		<polygon class="st2" points="-59,-42.8 -59,-35.9 -60.2,-35.9 -60.2,-44.2 		"/>
	</g>
	<g>
		<polygon class="st2" points="-56.1,-42 -56.1,-35.9 -57.2,-35.9 -57.2,-41.1 		"/>
	</g>
	<g>
		<polygon class="st2" points="-53.1,-44.2 -53.1,-35.9 -54.3,-35.9 -54.3,-43.3 		"/>
	</g>
	<g>
		<polygon class="st2" points="-50.2,-45.8 -50.2,-35.9 -51.4,-35.9 -51.4,-45.6 -50.5,-46.2 		"/>
	</g>
	<g>
		<polygon class="st2" points="-61.9,-43 -61.9,-35.9 -63.1,-35.9 -63.1,-42.1 		"/>
	</g>
</g>
</svg>
