<?xml version="1.0" encoding="utf-8"?>
<!-- Generator: Adobe Illustrator 25.3.0, SVG Export Plug-In . SVG Version: 6.00 Build 0)  -->
<svg version="1.0" id="Layer_1" xmlns="http://www.w3.org/2000/svg" xmlns:xlink="http://www.w3.org/1999/xlink" x="0px" y="0px"
	 viewBox="0 0 45 45" style="enable-background:new 0 0 45 45;" xml:space="preserve">
<style type="text/css">
	.st0{fill:#F5F9FF;}
	.st1{fill:#1F69F6;}
	.st2{fill:#171E29;}
	.st3{fill:none;}
</style>
<circle class="st0" cx="22.5" cy="22.5" r="22.5"/>
<g>
	<path class="st1" d="M-51.9,140.3h-16.6c-0.9,0-1.7,0.8-1.7,1.7v11.3c0,0.9,0.8,1.7,1.7,1.7h6.2v3.2h-4.3v1.4h12.6v-1.4h-4.3v-3.2
		h6.2c0.9,0,1.7-0.8,1.7-1.7V142C-50.2,141-50.9,140.3-51.9,140.3z M-51.6,153.3c0,0.1-0.1,0.2-0.2,0.2h-16.6
		c-0.1,0-0.2-0.1-0.2-0.2V142c0-0.1,0.1-0.2,0.2-0.2h16.6c0.1,0,0.2,0.1,0.2,0.2V153.3z"/>
	<rect x="-64.2" y="147.9" class="st2" width="1.2" height="2.9"/>
	<rect x="-61.9" y="146.7" class="st2" width="1.2" height="4.1"/>
	<rect x="-59.6" y="145.8" class="st2" width="1.2" height="5"/>
	<rect x="-57.3" y="144.4" class="st2" width="1.2" height="6.4"/>
</g>
<g>
	<g>
		<rect x="-106.5" y="10.8" class="st2" width="1.2" height="2.9"/>
		<rect x="-104.2" y="9.7" class="st2" width="1.2" height="4.1"/>
		<rect x="-101.9" y="8.8" class="st2" width="1.2" height="5"/>
		<rect x="-99.6" y="7.4" class="st2" width="1.2" height="6.4"/>
	</g>
	<g>
		<path class="st1" d="M-96.5,24h-11.9c-0.8,0-1.4-0.6-1.4-1.4V3.9c0-0.8,0.6-1.4,1.4-1.4h11.9c0.8,0,1.4,0.6,1.4,1.4v18.7
			C-95.1,23.4-95.7,24-96.5,24z M-108.2,22.5h11.6V4h-11.6V22.5z"/>
	</g>
	<circle class="st2" cx="-102.4" cy="20.8" r="0.9"/>
</g>
<g>
	<g>
		<path class="st1" d="M-84.9,66.4l-0.5-0.4l0.1-0.3l0.9-3.9l0.1-0.1l11.1-13.1l3.5,3l-11.1,13.2l-0.1,0.1L-84.9,66.4z M-83.5,62.2
			l-0.7,2.8l2.7-1.1l10.4-12.3l-2-1.7L-83.5,62.2z"/>
	</g>
	<g>
		<rect x="-85.2" y="67" class="st2" width="16.2" height="1"/>
	</g>
	<g>
		<rect x="-80.2" y="65.4" class="st2" width="11.1" height="1"/>
	</g>
	<g>
		
			<rect x="-74.2" y="51.3" transform="matrix(0.6498 -0.7601 0.7601 0.6498 -65.806 -37.5608)" class="st2" width="1" height="2.7"/>
	</g>
</g>
<g>
	<g>
		<path class="st1" d="M31,30.7H14c-1.2,0-2.2-1-2.2-2.2V16.5c0-1.2,1-2.2,2.2-2.2h17.8c0.8,0,1.5,0.7,1.5,1.5v12.6
			C33.2,29.7,32.3,30.7,31,30.7z M14,15.9c-0.3,0-0.6,0.3-0.6,0.6v11.9c0,0.3,0.3,0.6,0.6,0.6H31c0.3,0,0.6-0.3,0.6-0.6V15.9H14z"/>
	</g>
	<g>
		<path class="st2" d="M18.8,19.9c0-0.1,0-0.1,0-0.2l0.6-0.4L19,18.5l-0.7,0.2c-0.1-0.1-0.3-0.2-0.4-0.3l-0.2-0.7h-0.8l-0.2,0.7
			c-0.2,0.1-0.3,0.2-0.5,0.3l-0.6-0.2l-0.4,0.7l0.5,0.5v0.2c0,0.1,0,0.2,0,0.3l-0.5,0.5l0.4,0.7l0.7-0.2c0.1,0.1,0.3,0.2,0.4,0.2h0
			l0.2,0.7h0.8l0.2-0.7h-0.1c0.2-0.1,0.4-0.2,0.5-0.3l0,0.1l0.7,0.2l0.4-0.7l-0.6-0.5C18.8,20,18.8,19.9,18.8,19.9z M17.3,20.4
			c-0.3,0-0.5-0.2-0.5-0.5c0-0.3,0.2-0.5,0.5-0.5c0.3,0,0.5,0.2,0.5,0.5C17.8,20.2,17.6,20.4,17.3,20.4z"/>
		<path class="st2" d="M20.5,22.6c0,0,0-0.1,0-0.1l0.4-0.3l-0.2-0.5l-0.5,0.1c-0.1-0.1-0.2-0.1-0.3-0.2l-0.1-0.5h-0.5l-0.1,0.5
			c-0.1,0-0.2,0.1-0.3,0.2l-0.4-0.1l-0.3,0.4l0.3,0.3v0.1c0,0.1,0,0.1,0,0.2l-0.4,0.3l0.3,0.4l0.5-0.2c0.1,0.1,0.2,0.1,0.3,0.2h0
			l0.1,0.5h0.5l0.1-0.5h0c0.1,0,0.2-0.1,0.4-0.2l0,0.1l0.5,0.1l0.2-0.5l-0.4-0.3C20.5,22.8,20.5,22.7,20.5,22.6z M19.5,23
			c-0.2,0-0.4-0.2-0.4-0.4s0.2-0.4,0.4-0.4c0.2,0,0.4,0.2,0.4,0.4S19.7,23,19.5,23z"/>
		<path class="st2" d="M18.7,25.3c0-0.1,0-0.1,0-0.2l0.5-0.4l-0.3-0.6l-0.7,0.2c-0.1-0.1-0.3-0.2-0.4-0.2l-0.1-0.7h-0.7L16.8,24
			c-0.2,0.1-0.3,0.2-0.4,0.3l-0.6-0.2l-0.4,0.6l0.5,0.4v0.2c0,0.1,0,0.2,0,0.2L15.4,26l0.4,0.6l0.6-0.2c0.1,0.1,0.3,0.2,0.4,0.2h0
			l0.2,0.7h0.7l0.1-0.7h-0.1c0.2-0.1,0.3-0.2,0.5-0.3l0,0.1l0.7,0.2l0.3-0.6l-0.5-0.5C18.7,25.5,18.7,25.4,18.7,25.3z M17.3,25.8
			c-0.3,0-0.5-0.2-0.5-0.5c0-0.3,0.2-0.5,0.5-0.5c0.3,0,0.5,0.2,0.5,0.5C17.8,25.6,17.6,25.8,17.3,25.8z"/>
	</g>
	<g>
		<rect x="25.1" y="19.6" class="st2" width="4.4" height="0.8"/>
	</g>
	<g>
		<rect x="23.6" y="22.3" class="st2" width="5.9" height="0.8"/>
	</g>
	<g>
		<rect x="22" y="25" class="st2" width="7.5" height="0.8"/>
	</g>
</g>
<g>
	<g>
		<path class="st1" d="M-86.5,92.1h-3.9v-1.3h3.9c1.2,0,2.2-1,2.2-2.2c0-1-0.7-1.9-1.7-2.1l-0.5-0.1l0.1-0.6c0-0.2,0-0.4,0-0.5
			c0-3.2-2.6-5.8-5.8-5.8c-2.3,0-4.4,1.3-5.3,3.4l-0.2,0.5l-0.5-0.1c-0.3-0.1-0.6-0.1-0.9-0.1c-2.1,0-3.8,1.7-3.8,3.8
			c0,2.1,1.6,3.8,3.7,3.8l0.1,0h2.6v1.3l-2.7,0c-2.8-0.1-4.9-2.3-4.9-5.1c0-2.8,2.3-5.1,5.1-5.1c0.2,0,0.4,0,0.6,0
			c1.2-2.3,3.6-3.7,6.2-3.7c3.9,0,7.1,3.2,7.1,7.1c0,0,0,0.1,0,0.1c1.3,0.5,2.2,1.8,2.2,3.2C-83.1,90.5-84.6,92.1-86.5,92.1z"/>
	</g>
	<circle class="st2" cx="-94.6" cy="91.4" r="2.5"/>
	<g>
		<path class="st1" d="M-96.8,88.4l-0.7-1c0.1-0.1,0.2-0.2,0.4-0.2l0.6,1.1C-96.6,88.3-96.7,88.3-96.8,88.4z"/>
	</g>
	<g>
		<path class="st1" d="M-94.6,96.4c-1.1,0-2.1-0.3-2.9-0.9l0.7-1c0.6,0.5,1.4,0.7,2.2,0.7c2.1,0,3.7-1.7,3.7-3.7
			c0-2.1-1.7-3.7-3.7-3.7c-0.7,0-1.3,0.2-1.9,0.5l-0.6-1.1c0.8-0.5,1.7-0.7,2.6-0.7c2.8,0,5,2.2,5,5C-89.6,94.2-91.8,96.4-94.6,96.4
			z"/>
	</g>
</g>
<g>
	<g>
		<path class="st1" d="M-53.6-51.9l2.3,3.1l-6.1,4.6l-1.7-2.1l-0.1-0.2l-0.9-1.1l-5.7,4.2L-66-43l-0.2,0.2l0.2,0.3l0.5,0.6l0.7-0.5
			l1.8-1.3l1.2-0.9l1.7-1.3l0,0l1.2,1.5l1.5,1.8l0.3-0.2l1.2-0.9l1.8-1.3l1.2-0.9l1.8-1.3l0.9-0.7l0.3,0.4l2.5,3.1l0.8-7.6H-53.6z
			 M-48.6-47.3l-1.1-1.3l-1.6-2.1h3L-48.6-47.3z"/>
	</g>
	<g>
		<polygon class="st2" points="-64.9,-40.8 -64.9,-35.9 -66,-35.9 -66,-40.9 -65.6,-40.2 		"/>
	</g>
	<g>
		<line class="st3" x1="-59" y1="-44.6" x2="-59.1" y2="-44.8"/>
		<polygon class="st2" points="-59,-42.8 -59,-35.9 -60.2,-35.9 -60.2,-44.2 		"/>
	</g>
	<g>
		<polygon class="st2" points="-56.1,-42 -56.1,-35.9 -57.2,-35.9 -57.2,-41.1 		"/>
	</g>
	<g>
		<polygon class="st2" points="-53.1,-44.2 -53.1,-35.9 -54.3,-35.9 -54.3,-43.3 		"/>
	</g>
	<g>
		<polygon class="st2" points="-50.2,-45.8 -50.2,-35.9 -51.4,-35.9 -51.4,-45.6 -50.5,-46.2 		"/>
	</g>
	<g>
		<polygon class="st2" points="-61.9,-43 -61.9,-35.9 -63.1,-35.9 -63.1,-42.1 		"/>
	</g>
</g>
</svg>
