<?xml version="1.0" encoding="utf-8"?>
<!-- Generator: Adobe Illustrator 25.3.0, SVG Export Plug-In . SVG Version: 6.00 Build 0)  -->
<svg version="1.0" id="Layer_1" xmlns="http://www.w3.org/2000/svg" xmlns:xlink="http://www.w3.org/1999/xlink" x="0px" y="0px"
	 viewBox="0 0 45 45" style="enable-background:new 0 0 45 45;" xml:space="preserve">
<style type="text/css">
	.st0{fill:#F5F9FF;}
	.st1{display:none;}
	.st2{display:inline;fill:#1F69F6;}
	.st3{display:inline;fill:#171E29;}
	.st4{display:inline;}
	.st5{fill:#171E29;}
	.st6{fill:#1F69F6;}
	.st7{fill:none;}
	.st8{display:inline;fill:none;stroke:#1F69F6;stroke-width:1.5;stroke-linecap:round;stroke-miterlimit:10;}
	.st9{display:inline;fill:none;stroke:#171E29;stroke-miterlimit:10;}
	.st10{fill:none;stroke:#171E29;stroke-miterlimit:10;}
	.st11{display:inline;fill:none;stroke:#171E29;stroke-width:1.5;stroke-miterlimit:10;}
	.st12{display:inline;fill:none;stroke:#1F69F6;stroke-linecap:round;stroke-miterlimit:10;}
	.st13{display:inline;fill:none;stroke:#171E29;stroke-linecap:round;stroke-linejoin:round;stroke-miterlimit:10;}
	.st14{font-family:'FuturaBT-BoldCondensed';}
	.st15{font-size:7.3736px;}
	.st16{fill:none;stroke:#1F69F6;stroke-miterlimit:10;}
	.st17{display:inline;fill:none;stroke:#1F69F6;stroke-linecap:round;stroke-linejoin:round;stroke-miterlimit:10;}
	.st18{fill:none;stroke:#1F69F6;stroke-linecap:round;stroke-linejoin:round;stroke-miterlimit:10;}
	.st19{fill:none;stroke:#171E29;stroke-linecap:round;stroke-linejoin:round;stroke-miterlimit:10;}
</style>
<circle class="st0" cx="22.5" cy="22.5" r="22.5"/>
<g class="st1">
	<path class="st2" d="M-51.9,140.3h-16.6c-0.9,0-1.7,0.8-1.7,1.7v11.3c0,0.9,0.8,1.7,1.7,1.7h6.2v3.2h-4.3v1.4h12.6v-1.4h-4.3v-3.2
		h6.2c0.9,0,1.7-0.8,1.7-1.7V142C-50.2,141-50.9,140.3-51.9,140.3z M-51.6,153.3c0,0.1-0.1,0.2-0.2,0.2h-16.6
		c-0.1,0-0.2-0.1-0.2-0.2V142c0-0.1,0.1-0.2,0.2-0.2h16.6c0.1,0,0.2,0.1,0.2,0.2V153.3z"/>
	<rect x="-64.2" y="147.9" class="st3" width="1.2" height="2.9"/>
	<rect x="-61.9" y="146.7" class="st3" width="1.2" height="4.1"/>
	<rect x="-59.6" y="145.8" class="st3" width="1.2" height="5"/>
	<rect x="-57.3" y="144.4" class="st3" width="1.2" height="6.4"/>
</g>
<g class="st1">
	<g class="st4">
		<rect x="-106.5" y="10.8" class="st5" width="1.2" height="2.9"/>
		<rect x="-104.2" y="9.7" class="st5" width="1.2" height="4.1"/>
		<rect x="-101.9" y="8.8" class="st5" width="1.2" height="5"/>
		<rect x="-99.6" y="7.4" class="st5" width="1.2" height="6.4"/>
	</g>
	<g class="st4">
		<path class="st6" d="M-96.5,24h-11.9c-0.8,0-1.4-0.6-1.4-1.4V3.9c0-0.8,0.6-1.4,1.4-1.4h11.9c0.8,0,1.4,0.6,1.4,1.4v18.7
			C-95.1,23.4-95.7,24-96.5,24z M-108.2,22.5h11.6V4h-11.6V22.5z"/>
	</g>
	<circle class="st3" cx="-102.4" cy="20.8" r="0.9"/>
</g>
<g class="st1">
	<g class="st4">
		<path class="st6" d="M-125.6,65.8l-0.5-0.4l0.1-0.3l0.9-3.9l0.1-0.1L-114,48l3.5,3l-11.1,13.2l-0.1,0.1L-125.6,65.8z M-124.2,61.6
			l-0.7,2.8l2.7-1.1l10.4-12.3l-2-1.7L-124.2,61.6z"/>
	</g>
	<g class="st4">
		<rect x="-125.9" y="66.4" class="st5" width="16.2" height="1"/>
	</g>
	<g class="st4">
		<rect x="-120.8" y="64.8" class="st5" width="11.1" height="1"/>
	</g>
	<g class="st4">
		
			<rect x="-114.8" y="50.7" transform="matrix(0.6498 -0.7601 0.7601 0.6498 -79.5927 -68.6801)" class="st5" width="1" height="2.7"/>
	</g>
</g>
<g class="st1">
	<g class="st4">
		<path class="st6" d="M-111.9,129.3H-129c-1.2,0-2.2-1-2.2-2.2v-11.9c0-1.2,1-2.2,2.2-2.2h17.8c0.8,0,1.5,0.7,1.5,1.5v12.6
			C-109.7,128.3-110.7,129.3-111.9,129.3z M-129,114.6c-0.3,0-0.6,0.3-0.6,0.6v11.9c0,0.3,0.3,0.6,0.6,0.6h17.1
			c0.3,0,0.6-0.3,0.6-0.6v-12.6H-129z"/>
	</g>
	<g class="st4">
		<path class="st5" d="M-124.2,118.5c0-0.1,0-0.1,0-0.2l0.6-0.4l-0.4-0.7l-0.7,0.2c-0.1-0.1-0.3-0.2-0.4-0.3l-0.2-0.7h-0.8l-0.2,0.7
			c-0.2,0.1-0.3,0.2-0.5,0.3l-0.6-0.2l-0.4,0.7l0.5,0.5v0.2c0,0.1,0,0.2,0,0.3l-0.5,0.5l0.4,0.7l0.7-0.2c0.1,0.1,0.3,0.2,0.4,0.2h0
			l0.2,0.7h0.8l0.2-0.7h-0.1c0.2-0.1,0.4-0.2,0.5-0.3l0,0.1l0.7,0.2l0.4-0.7l-0.6-0.5C-124.2,118.7-124.2,118.6-124.2,118.5z
			 M-125.7,119.1c-0.3,0-0.5-0.2-0.5-0.5s0.2-0.5,0.5-0.5c0.3,0,0.5,0.2,0.5,0.5S-125.4,119.1-125.7,119.1z"/>
		<path class="st5" d="M-122.4,121.3c0,0,0-0.1,0-0.1l0.4-0.3l-0.2-0.5l-0.5,0.1c-0.1-0.1-0.2-0.1-0.3-0.2l-0.1-0.5h-0.5l-0.1,0.5
			c-0.1,0-0.2,0.1-0.3,0.2l-0.4-0.1l-0.3,0.4l0.3,0.3v0.1c0,0.1,0,0.1,0,0.2l-0.4,0.3l0.3,0.4l0.5-0.2c0.1,0.1,0.2,0.1,0.3,0.2h0
			l0.1,0.5h0.5l0.1-0.5h0c0.1,0,0.2-0.1,0.4-0.2l0,0.1l0.5,0.1l0.2-0.5l-0.4-0.3C-122.4,121.4-122.4,121.3-122.4,121.3z
			 M-123.4,121.7c-0.2,0-0.4-0.2-0.4-0.4c0-0.2,0.2-0.4,0.4-0.4c0.2,0,0.4,0.2,0.4,0.4C-123.1,121.5-123.2,121.7-123.4,121.7z"/>
		<path class="st5" d="M-124.3,123.9c0-0.1,0-0.1,0-0.2l0.5-0.4l-0.3-0.6l-0.7,0.2c-0.1-0.1-0.3-0.2-0.4-0.2l-0.1-0.7h-0.7l-0.2,0.7
			c-0.2,0.1-0.3,0.2-0.4,0.3l-0.6-0.2l-0.4,0.6l0.5,0.4v0.2c0,0.1,0,0.2,0,0.2l-0.5,0.5l0.4,0.6l0.6-0.2c0.1,0.1,0.3,0.2,0.4,0.2h0
			l0.2,0.7h0.7l0.1-0.7h-0.1c0.2-0.1,0.3-0.2,0.5-0.3l0,0.1l0.7,0.2l0.3-0.6l-0.5-0.5C-124.3,124.1-124.3,124-124.3,123.9z
			 M-125.7,124.5c-0.3,0-0.5-0.2-0.5-0.5s0.2-0.5,0.5-0.5c0.3,0,0.5,0.2,0.5,0.5S-125.4,124.5-125.7,124.5z"/>
	</g>
	<g class="st4">
		<rect x="-117.9" y="118.2" class="st5" width="4.4" height="0.8"/>
	</g>
	<g class="st4">
		<rect x="-119.4" y="120.9" class="st5" width="5.9" height="0.8"/>
	</g>
	<g class="st4">
		<rect x="-121" y="123.6" class="st5" width="7.5" height="0.8"/>
	</g>
</g>
<g class="st1">
	<g class="st4">
		<path class="st6" d="M40.2,162.6h-3.9v-1.3h3.9c1.2,0,2.2-1,2.2-2.2c0-1-0.7-1.9-1.7-2.1l-0.5-0.1l0.1-0.6c0-0.2,0-0.4,0-0.5
			c0-3.2-2.6-5.8-5.8-5.8c-2.3,0-4.4,1.3-5.3,3.4l-0.2,0.5l-0.5-0.1c-0.3-0.1-0.6-0.1-0.9-0.1c-2.1,0-3.8,1.7-3.8,3.8
			c0,2.1,1.6,3.8,3.7,3.8l0.1,0h2.6v1.3l-2.7,0c-2.8-0.1-4.9-2.3-4.9-5.1c0-2.8,2.3-5.1,5.1-5.1c0.2,0,0.4,0,0.6,0
			c1.2-2.3,3.6-3.7,6.2-3.7c3.9,0,7.1,3.2,7.1,7.1c0,0,0,0.1,0,0.1c1.3,0.5,2.2,1.8,2.2,3.2C43.7,161.1,42.2,162.6,40.2,162.6z"/>
	</g>
	<circle class="st3" cx="32.2" cy="162" r="2.5"/>
	<g class="st4">
		<path class="st6" d="M32.2,167c-1.1,0-2.1-0.3-2.9-0.9l0.7-1c0.6,0.5,1.4,0.7,2.2,0.7c2.1,0,3.7-1.7,3.7-3.7s-1.7-3.7-3.7-3.7
			c-0.7,0-1.3,0.2-1.9,0.5l-0.6-1.1c0.8-0.5,1.7-0.7,2.6-0.7c2.8,0,5,2.2,5,5S35,167,32.2,167z"/>
	</g>
</g>
<g class="st1">
	<g class="st4">
		<path class="st6" d="M-103.5-24.3l2.3,3.1l-6.1,4.6l-1.7-2.1l-0.1-0.2l-0.9-1.1l-5.7,4.2l-0.4,0.3l-0.2,0.2l0.2,0.3l0.5,0.6
			l0.7-0.5l1.8-1.3l1.2-0.9l1.7-1.3l0,0l1.2,1.5l1.5,1.8l0.3-0.2l1.2-0.9l1.8-1.3l1.2-0.9l1.8-1.3l0.9-0.7l0.3,0.4l2.5,3.1l0.8-7.6
			H-103.5z M-98.5-19.7l-1.1-1.3l-1.6-2.1h3L-98.5-19.7z"/>
	</g>
	<g class="st4">
		<polygon class="st5" points="-114.7,-13.1 -114.7,-8.3 -115.9,-8.3 -115.9,-12.2 		"/>
	</g>
	<g class="st4">
		<line class="st7" x1="-108.9" y1="-17" x2="-109" y2="-17.2"/>
		<polygon class="st5" points="-108.9,-15.1 -108.9,-8.3 -110.1,-8.3 -110.1,-16.6 		"/>
	</g>
	<g class="st4">
		<polygon class="st5" points="-105.9,-14.4 -105.9,-8.3 -107.1,-8.3 -107.1,-13.5 		"/>
	</g>
	<g class="st4">
		<polygon class="st5" points="-103,-16.6 -103,-8.3 -104.2,-8.3 -104.2,-15.7 		"/>
	</g>
	<g class="st4">
		<polygon class="st5" points="-100.1,-18.8 -100.1,-8.3 -101.3,-8.3 -101.3,-17.9 -100.4,-18.6 -100.4,-18.6 		"/>
	</g>
	<g class="st4">
		<polygon class="st5" points="-111.8,-15.3 -111.8,-8.3 -113,-8.3 -113,-14.4 		"/>
	</g>
</g>
<g class="st1">
	<line class="st8" x1="16.1" y1="24.7" x2="29" y2="24.7"/>
	<polyline class="st8" points="13.3,22.1 22.9,22.1 24.9,19.3 30.9,19.3 	"/>
	<polyline class="st8" points="10.6,18.6 21.4,18.6 24.3,14.9 34.4,14.9 	"/>
	<circle class="st9" cx="21.3" cy="28.6" r="1.5"/>
	<circle class="st9" cx="26.3" cy="28.6" r="1.2"/>
</g>
<image style="display:none;overflow:visible;" width="564" height="1035" xlink:href="../../../../../Downloads/fd51c2899208ef8f3ffba1359efbeb99.jpg"  transform="matrix(1.0124 0 0 1.0124 -319.4501 -466.4247)">
</image>
<g class="st1">
	<g class="st4">
		<rect x="25.6" y="18.7" class="st5" width="0.9" height="15.2"/>
	</g>
	<g class="st4">
		<rect x="27.9" y="18.7" class="st5" width="0.9" height="13.1"/>
	</g>
	<g class="st4">
		
			<rect x="25.5" y="32.2" transform="matrix(0.7071 -0.7071 0.7071 0.7071 -15.1201 28.8498)" class="st5" width="3.4" height="0.9"/>
	</g>
	<g class="st4">
		<rect x="29" y="31.1" transform="matrix(0.7071 -0.7071 0.7071 0.7071 -14.406 30.3625)" class="st5" width="0.9" height="2.9"/>
	</g>
	<g class="st4">
		<rect x="15" y="13.9" class="st5" width="2.8" height="0.9"/>
	</g>
	<g class="st4">
		<rect x="15" y="16.2" class="st5" width="2.8" height="0.9"/>
	</g>
	<g class="st4">
		<path class="st10" d="M19,19.6"/>
	</g>
	<g class="st4">
		<path class="st6" d="M29.9,34.3H15.1c-0.7,0-1.3-0.6-1.3-1.3V19.5c0-0.7,0.6-1.3,1.3-1.3h14.8c0.7,0,1.3,0.6,1.3,1.3V33
			C31.2,33.8,30.6,34.3,29.9,34.3z M15.1,19.1c-0.2,0-0.4,0.2-0.4,0.4V33c0,0.2,0.2,0.4,0.4,0.4h14.8c0.2,0,0.4-0.2,0.4-0.4V19.5
			c0-0.2-0.2-0.4-0.4-0.4H15.1z"/>
	</g>
	<g class="st4">
		<path class="st6" d="M15.5,18.8h-0.9v-5.6l0-0.1c0-0.1,1.1-2.1,3-2.4c1.1-0.2,2.2,0.3,3.3,1.5l0.1,0.1v3.9h-0.9v-3.5
			c-0.8-0.8-1.6-1.2-2.4-1.1c-1.2,0.2-2.1,1.5-2.3,1.8V18.8z"/>
	</g>
	<g class="st4">
		<path class="st6" d="M18.5,18.8c-0.1-1.1,0.2-3.1,1.8-3.4c0.2-0.6,0.9-1.9,2-2c0.9-0.1,1.7,0.6,2.5,2.1c0.4,0.1,1.1,0.5,1.1,1.2
			l-0.9,0.1c0-0.2-0.4-0.4-0.7-0.4l-0.2-0.1L24.2,16c-0.6-1.2-1.3-1.8-1.8-1.8c-0.7,0.1-1.2,1.2-1.4,1.7L21,16.2l-0.3,0
			c-1.5,0.1-1.3,2.5-1.3,2.5L18.5,18.8z"/>
	</g>
	<g class="st4">
		<polygon class="st6" points="29.8,18.9 28.3,16.2 28.3,15 29.2,15 29.2,15.9 30.6,18.5 		"/>
	</g>
	<g class="st4">
		<polygon class="st6" points="25,18.7 24.2,18.3 25.6,15.8 25.6,14.9 26.5,14.9 26.5,16 		"/>
	</g>
	<g class="st4">
		<path class="st6" d="M29.8,15.3H25v-1.9c0-0.8,0.6-1.4,1.4-1.4h1.9c0.8,0,1.4,0.6,1.4,1.4V15.3z M25.9,14.4h3v-1
			c0-0.3-0.3-0.6-0.6-0.6h-1.9c-0.3,0-0.6,0.2-0.6,0.6V14.4z"/>
	</g>
</g>
<g class="st1">
	<path class="st8" d="M89.5,19.2c-1-1.4-1.6-3-1.6-4.9c0-4.5,3.6-8.1,8.1-8.1"/>
	<path class="st8" d="M102.7,9.7c0.9,1.3,1.5,2.9,1.5,4.7c0,4.5-3.6,8.1-8.1,8.1"/>
	<circle class="st8" cx="96" cy="14.4" r="11.3"/>
	<line class="st11" x1="92.4" y1="14.4" x2="100.5" y2="14.4"/>
	<line class="st11" x1="96.4" y1="10.3" x2="96.4" y2="18.5"/>
</g>
<g class="st1">
	<path class="st12" d="M15.3,25.1"/>
	<path class="st12" d="M14.4,24.7c1.2-0.7,2.4-1.3,3.6-2c0.2-0.1,0.4-0.2,0.7-0.3c0.3-0.1,0.5-0.1,0.7-0.1c1.4,0,2.8,0,4.2,0
		c0.8,0.2,1.3,0.9,1.4,1.7c0.1,0.7-0.2,1.5-0.9,1.9c-1.7,0.6-3.4,1.1-5.1,1.7"/>
	<path class="st12" d="M24.1,27.4c0.8,0,1.6,0,2.3,0c0.1,0,0.3,0,0.5-0.1c0.4-0.1,0.6-0.3,0.7-0.5c1.3-1,2.6-2,3.9-3
		c0.6-0.2,1.3,0,1.8,0.4c0.5,0.5,0.7,1.3,0.3,2c-2.2,1.6-4.4,3.3-6.6,4.9c-0.2,0.2-0.6,0.5-1.1,0.7c-0.6,0.2-1.2,0.2-1.5,0.2
		c-2.8,0-5.6,0-8.4,0"/>
	<path class="st12" d="M11.2,32.2v-7.8c0-0.6,0.5-1,1-1h1.2c0.6,0,1,0.5,1,1v7.8c0,0.6-0.5,1-1,1h-0.9"/>
	<path class="st13" d="M25.7,13.6c0,1,0,1.3,0,2.3c0,0-0.1,0.4-0.4,0.6c-0.2,0.1-0.5,0.1-0.8,0c-0.5-0.3-1-0.6-1.5-0.8
		c-0.5,0.3-1.1,0.6-1.6,0.9c-0.2,0.1-0.5,0.1-0.7,0c-0.2-0.2-0.3-0.5-0.3-0.5c0-1.3,0-2.6,0-3.9"/>
	<path class="st12" d="M31.7,22.1v-8.8c0-0.8-0.7-1.5-1.5-1.5H15.9c-0.8,0-1.5,0.7-1.5,1.5v8.8"/>
</g>
<g class="st1">
	<circle class="st8" cx="16.3" cy="22.6" r="5.5"/>
	<text transform="matrix(1 0 0 1 14.6045 25.1641)" class="st3 st14 st15">$</text>
	<polyline class="st8" points="31.5,13.6 24.8,13.6 19.7,17.9 	"/>
	<polyline class="st8" points="31.5,18.2 25,18.2 21.7,21.1 	"/>
	<polyline class="st8" points="31.5,31.4 24.8,31.4 19.7,27.1 	"/>
	<polyline class="st8" points="31.5,26.8 25,26.8 21.7,23.9 	"/>
	<circle class="st9" cx="32.9" cy="18.2" r="1.2"/>
	<circle class="st9" cx="32.9" cy="13.6" r="1.2"/>
	<circle class="st9" cx="32.9" cy="31.4" r="1.2"/>
	<circle class="st9" cx="32.9" cy="26.8" r="1.2"/>
</g>
<rect x="-99.6" y="7.7" class="st16" width="24.1" height="24.1"/>
<g class="st1">
	<polygon class="st13" points="101,16.1 102.2,19.9 106.2,19.9 103,22.3 104.2,26.1 101,23.7 97.7,26.1 99,22.3 95.7,19.9 
		99.7,19.9 	"/>
	<path class="st17" d="M92.6,26.5h-7.7c-0.7,0-1.2-0.5-1.2-1.2v-7.7c0-0.7,0.5-1.2,1.2-1.2h7.7c0.7,0,1.2,0.5,1.2,1.2v7.7
		C93.8,25.9,93.3,26.5,92.6,26.5z"/>
	<path class="st17" d="M92.6,38.6h-7.7c-0.7,0-1.2-0.5-1.2-1.2v-7.7c0-0.7,0.5-1.2,1.2-1.2h7.7c0.7,0,1.2,0.5,1.2,1.2v7.7
		C93.8,38.1,93.3,38.6,92.6,38.6z"/>
	<path class="st17" d="M104.8,38.6h-7.7c-0.7,0-1.2-0.5-1.2-1.2v-7.7c0-0.7,0.5-1.2,1.2-1.2h7.7c0.7,0,1.2,0.5,1.2,1.2v7.7
		C106,38.1,105.5,38.6,104.8,38.6z"/>
</g>
<image style="overflow:visible;" width="880" height="585" xlink:href="../../../../../Downloads/175-1759997_travel-tourism-paveya-medical-equipment-icon-png-clipart.jpg"  transform="matrix(0.75 0 0 0.75 -276.96 -546.855)">
</image>
<path class="st18" d="M118.7-177.4L118.7-177.4L118.7-177.4C118.7-177.4,118.7-177.4,118.7-177.4z"/>
<path class="st18" d="M136-177.4L136-177.4C136-177.4,136-177.4,136-177.4L136-177.4z"/>
<g>
	<path class="st18" d="M31.9,34H13.1c-0.9,0-1.7-0.8-1.7-1.7V14.8c0-0.9,0.8-1.7,1.7-1.7h18.7c0.9,0,1.7,0.8,1.7,1.7v17.5
		C33.5,33.2,32.8,34,31.9,34z"/>
	<polyline class="st18" points="11.5,25.2 25,19.7 26.3,24.7 	"/>
	<path class="st18" d="M18.6,34c0,0,2.4-10.8,14.9-10.4"/>
	<line class="st18" x1="27.8" y1="13.1" x2="30.3" y2="23.7"/>
	<line class="st18" x1="14.5" y1="24" x2="16" y2="34"/>
	<polyline class="st18" points="21.1,16.3 23.8,15.4 23.4,13.1 	"/>
	<line class="st18" x1="11.5" y1="19.7" x2="15" y2="18.5"/>
	<g>
		<path class="st19" d="M21.4,14.7c0,0.4-0.1,0.9-0.2,1.3c0,0,0,0,0,0c-0.2,0.5-0.4,0.9-0.8,1.3l-3,5.3l-3-5.3
			c-0.3-0.4-0.6-0.8-0.8-1.3c0,0,0,0,0,0c-0.1-0.4-0.2-0.8-0.2-1.3c0-2.2,1.8-4,4-4S21.4,12.5,21.4,14.7z"/>
		<circle class="st19" cx="17.4" cy="14.8" r="1.5"/>
	</g>
</g>
</svg>
