<?xml version="1.0" encoding="utf-8"?>
<!-- Generator: Adobe Illustrator 25.1.0, SVG Export Plug-In . SVG Version: 6.00 Build 0)  -->
<svg version="1.1" id="Layer_1" xmlns="http://www.w3.org/2000/svg" xmlns:xlink="http://www.w3.org/1999/xlink" x="0px" y="0px"
	 viewBox="0 0 556 543" style="enable-background:new 0 0 556 543;" xml:space="preserve">
<style type="text/css">
	.st0{fill:#F0F0F0;}
</style>
<path class="st0" d="M208.9,542.5c-7,0-14,0-21,0c-0.8-0.3-1.5-0.6-2.3-0.7c-9-1.2-18.2-1.7-27.1-3.6
	C53.5,515.4-13.6,418.1,3.2,312.5c8.5-53.2,34.3-96.7,78-127.9c86-61.4,172.9-121.5,259.5-182.1c2-1.4,4.9-1.9,7.4-1.9
	c69-0.1,138.1-0.1,207.1-0.1c0,112.1,0,224.3,0,336.4c-1.4,0.8-2.9,1.6-4.2,2.5c-78.8,55.2-157.6,110.3-236.3,165.5
	c-23.9,16.8-50,28.6-78.9,33.8C227,540.3,218,541.2,208.9,542.5z"/>
</svg>
