<?xml version="1.0" encoding="utf-8"?>
<!-- Generator: Adobe Illustrator 25.1.0, SVG Export Plug-In . SVG Version: 6.00 Build 0)  -->
<svg version="1.1" id="Layer_1" xmlns="http://www.w3.org/2000/svg" xmlns:xlink="http://www.w3.org/1999/xlink" x="0px" y="0px"
	 viewBox="0 0 58 48" style="enable-background:new 0 0 58 48;" xml:space="preserve">
<style type="text/css">
	.st0{fill:#FFFFFF;}
</style>
<g>
	<path d="M2659.1,1211.1v-2c0-2.8-5-4-9.7-4s-9.7,1.3-9.7,4v2c0,1.8,0.7,3.6,2,4.9l5,4.9c0.3,0.3,0.4,0.6,0.4,1v6.4
		c0,0.4,0.2,0.7,0.6,0.8l2.9,0.9c0.5,0.1,1-0.2,1-0.8v-7.2c0-0.4,0.2-0.7,0.4-1l5.1-5C2658.4,1214.7,2659.1,1212.9,2659.1,1211.1z
		 M2649.4,1211c-4.8,0-7.4-1.3-7.5-1.8l0,0c0.1-0.5,2.7-1.8,7.5-1.8s7.3,1.3,7.5,1.8C2656.7,1209.7,2654.2,1211,2649.4,1211z"/>
	<path d="M2654.4,1221.3c-0.6,0-1,0.4-1,1s0.4,1,1,1h4.3c0.6,0,1-0.4,1-1s-0.4-1-1-1H2654.4z"/>
	<path d="M2658.7,1224.7h-4.3c-0.6,0-1,0.4-1,1s0.4,1,1,1h4.3c0.6,0,1-0.4,1-1S2659.3,1224.7,2658.7,1224.7z"/>
	<path d="M2658.7,1228h-4.3c-0.6,0-1,0.4-1,1s0.4,1,1,1h4.3c0.6,0,1-0.4,1-1C2659.7,1228.5,2659.3,1228,2658.7,1228z"/>
</g>
<g>
	<path d="M-2559.3-1127.9c0.7,0,1.5-0.3,2.1-0.9c1.1-1.1,1.1-3,0-4.1l-7.3-7.3v-16c0-1.6-1.3-2.9-2.9-2.9c-1.6,0-2.9,1.3-2.9,2.9
		v17.2c0,0.8,0.3,1.5,0.8,2.1l8.2,8.2C-2560.8-1128.2-2560-1127.9-2559.3-1127.9z"/>
	<path d="M-2516.8-1140.7c-0.4-0.7-1.1-1.1-2-1.1h-4.8c-1.4-23-20.5-41.2-43.9-41.2c-24.3,0-44,19.8-44,44s19.8,44,44,44
		c13.6,0,26.3-6.2,34.7-16.9c1-1.3,0.8-3.1-0.5-4.1s-3.1-0.8-4.1,0.5c-7.3,9.3-18.3,14.7-30.1,14.7c-21,0-38.2-17.1-38.2-38.2
		s17.2-38.2,38.2-38.2c20.1,0,36.6,15.7,38.1,35.4h-4.5c-0.8,0-1.5,0.4-2,1.1c-0.4,0.7-0.4,1.6,0,2.2l7.6,13.5
		c0.4,0.7,1.2,1.2,2,1.2s1.6-0.4,2-1.2l7.6-13.4C-2516.4-1139.1-2516.4-1140-2516.8-1140.7z"/>
	<circle cx="-2567.5" cy="-1168.1" r="3.8"/>
	<circle cx="-2588.1" cy="-1159.6" r="3.8"/>
	<circle cx="-2596.6" cy="-1139" r="3.8"/>
	<circle cx="-2588.1" cy="-1118.4" r="3.8"/>
	<circle cx="-2567.5" cy="-1109.9" r="3.8"/>
	<circle cx="-2546.9" cy="-1118.4" r="3.8"/>
	<circle cx="-2546.9" cy="-1159.6" r="3.8"/>
</g>
<path class="st0" d="M19.2,18.7c0.8,0,1.6,0.1,2.4,0.3c1,0.2,1.7,1.2,1.5,2.3c0,0.1,0,0.1,0,0.2c-0.3,1.3-0.8,2.5-1.2,3.8
	c-0.1,0.3-0.2,0.6-0.4,0.8c0.6,0.4,1.2,0.7,1.8,1.1c2.2,1.7,3.6,4,4.6,6.5c1.3,3.3,1.9,6.8,1.8,10.3H8.6c0-0.4,0-0.9,0-1.3
	c0.1-3.5,0.9-6.9,2.3-10.1c1.3-2.8,3-5.1,5.9-6.4c-0.4-0.9-0.8-1.8-1.1-2.7c-0.2-0.9-0.4-1.7-0.5-2.6c-0.1-0.9,0.5-1.7,1.3-1.9
	C17.5,18.8,18.3,18.7,19.2,18.7 M19.2,16.2c-1.1,0-2.1,0.1-3.2,0.4c-2,0.5-3.3,2.4-3.1,4.4c0.1,1.1,0.3,2.1,0.6,3.1
	c0.1,0.3,0.2,0.6,0.3,0.9c-2.6,1.9-4.1,4.5-5,6.4c-1.6,3.5-2.4,7.2-2.5,11c0,0.4,0,0.7,0,1.1c0,0.1,0,0.3,0,0.4
	c0,1.4,1.1,2.5,2.5,2.5h21.1c1.4,0,2.5-1.1,2.5-2.5c0.1-3.8-0.6-7.6-2-11.2c-1.4-3.5-3.1-5.9-5.4-7.6c-0.1,0-0.1-0.1-0.2-0.1
	c0.3-1,0.6-2,0.9-3c0.6-2.4-0.8-4.8-3.1-5.4c0,0-0.1,0-0.1,0C21.2,16.4,20.2,16.2,19.2,16.2L19.2,16.2L19.2,16.2z"/>
<path class="st0" d="M36.5,16.9c0.3,0,0.6,0,0.9,0.2c0.6,0.4,0.8,1.4,1.2,2.1c0.5,1,1,2,1.5,3.1c0.1-0.2,0.2-0.3,0.3-0.5
	c0.7-1.5,1.4-2.9,2-4.4c0.1-0.3,0.4-0.5,0.7-0.5c0,0,0,0,0.1,0c0.2,0,0.5,0,0.7,0c0.3,0,0.7,0,1.1,0h0.1c1.2,0,1.5,0.5,1.3,1.6
	c-0.5,2.3-1,4.5-1.5,6.8c-0.4,1.8-0.8,3.5-1.1,5.3c-0.1,0.3-0.1,0.6-0.1,1c0,3.8,0,7.7,0,11.5V44c-1.2,0-2.4,0-3.6,0
	c-1.1,0-2.2,0-3.2,0h0c-0.4,0-0.5-0.2-0.5-0.6c0-1.9,0-3.8,0-5.7c0-1.2-0.1-2.4,0-3.7c0.2-3-0.5-5.8-1.1-8.6c-0.5-2.4-1-4.7-1.5-7.1
	c-0.2-0.5,0.1-1.1,0.6-1.3c0.2,0,0.3-0.1,0.5,0C35.5,17,36,16.9,36.5,16.9 M36.5,14.5c-0.4,0-0.7,0-1,0.1c-0.2,0-0.4,0-0.5,0
	c-1.9-0.1-3.5,1.4-3.6,3.3c0,0.3,0,0.7,0.1,1c0.5,2.3,1,4.6,1.5,7.1c0.1,0.3,0.1,0.6,0.2,1c0.5,2.4,1,4.7,0.9,6.9
	c-0.1,1,0,1.9,0,2.7c0,0.4,0,0.7,0,1.1v1.5c0,1.4,0,2.8,0,4.2c0,0.8,0.3,1.6,0.8,2.2c0.6,0.5,1.3,0.8,2.1,0.8h0c0.9,0,1.9,0,3.2,0
	H42h1.8c1.4,0,2.5-1.1,2.5-2.5v-3.2c0-3,0-6.1,0-9.1c0-0.2,0-0.3,0-0.5c0.3-1.7,0.7-3.4,1.1-5.3c0.2-0.9,0.4-1.8,0.6-2.7
	c0.3-1.3,0.6-2.7,0.9-4.1c0.3-1.1,0.1-2.3-0.6-3.3c-0.8-0.9-1.9-1.4-3.1-1.3h-0.1c-0.2,0-0.4,0-0.6,0c-0.2,0-0.3,0-0.5,0
	c-0.2,0-0.4,0-0.6,0c-0.1,0-0.1,0-0.2,0c-1.3,0-2.5,0.8-3,2l0,0.1c-0.3-0.7-0.8-1.2-1.5-1.6C38.1,14.6,37.3,14.4,36.5,14.5
	L36.5,14.5L36.5,14.5z"/>
<path class="st0" d="M40.2,4.7L40.2,4.7c1.7,0,3.1,1.4,3.1,3.1s-1.4,3.1-3.1,3.1h0c-1.7,0-3.1-1.4-3.1-3.1
	C37.1,6.1,38.5,4.7,40.2,4.7 M40.2,2.2L40.2,2.2c-3.1,0-5.6,2.5-5.6,5.5c0,3.1,2.5,5.6,5.5,5.6h0c3.1,0,5.6-2.5,5.6-5.5
	S43.3,2.2,40.2,2.2L40.2,2.2L40.2,2.2L40.2,2.2z"/>
<path class="st0" d="M19.2,6.9c1.6,0,2.8,1.3,2.8,2.9c0,1.5-1.3,2.8-2.8,2.8h0c-1.6,0-2.8-1.3-2.8-2.8S17.6,6.9,19.2,6.9L19.2,6.9
	 M19.2,4.4L19.2,4.4c-3,0-5.4,2.3-5.4,5.2c0,2.9,2.3,5.3,5.2,5.4c0,0,0.1,0,0.1,0h0c2.9,0,5.3-2.4,5.2-5.4
	C24.4,6.8,22.1,4.5,19.2,4.4L19.2,4.4L19.2,4.4z"/>
</svg>
