<?xml version="1.0" encoding="utf-8"?>
<!-- Generator: Adobe Illustrator 25.1.0, SVG Export Plug-In . SVG Version: 6.00 Build 0)  -->
<svg version="1.1" id="Layer_1" xmlns="http://www.w3.org/2000/svg" xmlns:xlink="http://www.w3.org/1999/xlink" x="0px" y="0px"
	 viewBox="0 0 58 48" style="enable-background:new 0 0 58 48;" xml:space="preserve">
<style type="text/css">
	.st0{fill:#FFFFFF;}
</style>
<g>
	<path d="M2659.1,1211.1v-2c0-2.8-5-4-9.7-4s-9.7,1.3-9.7,4v2c0,1.8,0.7,3.6,2,4.9l5,4.9c0.3,0.3,0.4,0.6,0.4,1v6.4
		c0,0.4,0.2,0.7,0.6,0.8l2.9,0.9c0.5,0.1,1-0.2,1-0.8v-7.2c0-0.4,0.2-0.7,0.4-1l5.1-5C2658.4,1214.7,2659.1,1212.9,2659.1,1211.1z
		 M2649.4,1211c-4.8,0-7.4-1.3-7.5-1.8l0,0c0.1-0.5,2.7-1.8,7.5-1.8s7.3,1.3,7.5,1.8C2656.7,1209.7,2654.2,1211,2649.4,1211z"/>
	<path d="M2654.4,1221.3c-0.6,0-1,0.4-1,1s0.4,1,1,1h4.3c0.6,0,1-0.4,1-1s-0.4-1-1-1H2654.4z"/>
	<path d="M2658.7,1224.7h-4.3c-0.6,0-1,0.4-1,1s0.4,1,1,1h4.3c0.6,0,1-0.4,1-1S2659.3,1224.7,2658.7,1224.7z"/>
	<path d="M2658.7,1228h-4.3c-0.6,0-1,0.4-1,1s0.4,1,1,1h4.3c0.6,0,1-0.4,1-1C2659.7,1228.5,2659.3,1228,2658.7,1228z"/>
</g>
<g>
	<path d="M-2559.3-1127.9c0.7,0,1.5-0.3,2.1-0.9c1.1-1.1,1.1-3,0-4.1l-7.3-7.3v-16c0-1.6-1.3-2.9-2.9-2.9c-1.6,0-2.9,1.3-2.9,2.9
		v17.2c0,0.8,0.3,1.5,0.8,2.1l8.2,8.2C-2560.8-1128.2-2560-1127.9-2559.3-1127.9z"/>
	<path d="M-2516.8-1140.7c-0.4-0.7-1.1-1.1-2-1.1h-4.8c-1.4-23-20.5-41.2-43.9-41.2c-24.3,0-44,19.8-44,44s19.8,44,44,44
		c13.6,0,26.3-6.2,34.7-16.9c1-1.3,0.8-3.1-0.5-4.1s-3.1-0.8-4.1,0.5c-7.3,9.3-18.3,14.7-30.1,14.7c-21,0-38.2-17.1-38.2-38.2
		s17.2-38.2,38.2-38.2c20.1,0,36.6,15.7,38.1,35.4h-4.5c-0.8,0-1.5,0.4-2,1.1c-0.4,0.7-0.4,1.6,0,2.2l7.6,13.5
		c0.4,0.7,1.2,1.2,2,1.2s1.6-0.4,2-1.2l7.6-13.4C-2516.4-1139.1-2516.4-1140-2516.8-1140.7z"/>
	<circle cx="-2567.5" cy="-1168.1" r="3.8"/>
	<circle cx="-2588.1" cy="-1159.6" r="3.8"/>
	<circle cx="-2596.6" cy="-1139" r="3.8"/>
	<circle cx="-2588.1" cy="-1118.4" r="3.8"/>
	<circle cx="-2567.5" cy="-1109.9" r="3.8"/>
	<circle cx="-2546.9" cy="-1118.4" r="3.8"/>
	<circle cx="-2546.9" cy="-1159.6" r="3.8"/>
</g>
<g>
	<path class="st0" d="M30.9,18.6c-1.4,0-2.5-1.1-2.5-2.6c0-1.4,1.1-2.6,2.5-2.6s2.5,1.1,2.5,2.6c0,0.6,0.5,1,1,1s1-0.5,1-1
		c0-2.2-1.5-4-3.5-4.5V9.8c0-0.6-0.5-1-1-1s-1,0.5-1,1v1.8c-2,0.5-3.5,2.3-3.5,4.5c0,2.5,2,4.6,4.5,4.6c1.4,0,2.5,1.1,2.5,2.6
		s-1.1,2.6-2.5,2.6c-1.4,0-2.5-1.1-2.5-2.6c0-0.6-0.5-1-1-1s-1,0.5-1,1c0,2.2,1.5,4,3.5,4.5v1.8c0,0.6,0.5,1,1,1s1-0.5,1-1v-1.8
		c2-0.5,3.5-2.3,3.5-4.5C35.4,20.7,33.4,18.6,30.9,18.6z"/>
	<path class="st0" d="M57,3.3H4.8c-0.6,0-1,0.5-1,1v22.5C1.4,29.6,0,33.1,0,36.8v8c0,0.6,0.4,1,1,1h26.7c0.5,0,1-0.5,1-1v-8
		c0-0.3,0-0.5,0-0.8H57c0.5,0,1-0.5,1-1V4.3C58,3.8,57.5,3.3,57,3.3z M56,13.8c-4.3-0.5-7.7-4-8.2-8.4H56V13.8z M14.4,11.6
		c3,0,5.5,2.6,5.5,5.7S17.4,23,14.4,23s-5.5-2.5-5.5-5.7C8.8,14.1,11.3,11.6,14.4,11.6z M13.9,5.4c-0.2,1.6-0.7,3.1-1.6,4.5
		c-1.8,0.5-3.4,1.8-4.3,3.4c-0.7,0.3-1.4,0.4-2.2,0.5V5.4H13.9z M26.7,43.8h-3v-4.9c0-0.6-0.5-1-1-1s-1,0.5-1,1v4.9H7.1v-4.9
		c0-0.6-0.4-1-1-1s-1,0.5-1,1v4.9H2v-7c0-4.2,2.1-8.2,5.5-10.6c2,1.6,4.3,2.4,6.8,2.4s4.9-0.9,6.8-2.4c3.4,2.3,5.5,6.3,5.5,10.6
		L26.7,43.8L26.7,43.8z M21.6,24.1c-0.4-0.2-0.9-0.2-1.2,0.1c-1.7,1.5-3.8,2.4-6.1,2.4s-4.4-0.9-6.1-2.4c-0.3-0.3-0.8-0.4-1.2-0.1
		c-0.5,0.3-0.9,0.6-1.3,0.9v-9.1c0.4,0,0.8-0.1,1.2-0.2c-0.1,0.5-0.2,1.1-0.2,1.6c0,4.3,3.4,7.7,7.5,7.7s7.5-3.5,7.5-7.7
		c0-4.1-3.1-7.5-7.1-7.7c0.6-1.3,1-2.7,1.2-4.2h29.9c0.5,5.5,4.8,10,10.2,10.5v7.6C50.6,24,46.3,28.4,45.8,34H28.4
		C27.6,29.9,25.2,26.2,21.6,24.1z M47.8,33.9c0.5-4.4,3.9-7.9,8.2-8.4v8.4H47.8z"/>
	<path class="st0" d="M14.9,29.4h-1.2c-0.5,0-0.9,0.4-1,0.9l-1.2,8.6c0,0.3,0,0.5,0.2,0.8l1.8,2.4c0.2,0.3,0.5,0.4,0.8,0.4
		s0.6-0.2,0.8-0.4l1.8-2.4c0.2-0.2,0.2-0.5,0.2-0.8l-1.2-8.6C15.9,29.8,15.4,29.4,14.9,29.4z M14.4,39.7l-0.7-1l0.7-5.2l0.7,5.2
		L14.4,39.7z"/>
	<path class="st0" d="M21.2,32.7h-2.5c-0.5,0-1,0.5-1,1s0.5,1,1,1h2.5c0.5,0,1-0.5,1-1S21.8,32.7,21.2,32.7z"/>
</g>
</svg>
