<?xml version="1.0" encoding="utf-8"?>
<!-- Generator: Adobe Illustrator 25.1.0, SVG Export Plug-In . SVG Version: 6.00 Build 0)  -->
<svg version="1.1" id="Layer_1" xmlns="http://www.w3.org/2000/svg" xmlns:xlink="http://www.w3.org/1999/xlink" x="0px" y="0px"
	 viewBox="0 0 58 48" style="enable-background:new 0 0 58 48;" xml:space="preserve">
<style type="text/css">
	.st0{fill:#FFFFFF;}
</style>
<path class="st0" d="M54.4,46.9H3.6c-2,0-3.6-1.6-3.6-3.6V15.7c0-2,1.6-3.6,3.6-3.6h13.5v-0.9C17.1,5,22.1,0,28.4,0
	s11.2,5,11.2,11.1v0.9h14.8c2,0,3.6,1.6,3.6,3.6v27.6C58,45.3,56.4,46.9,54.4,46.9z M2.5,23.7v19.6c0,0.6,0.5,1.2,1.2,1.2h50.8
	c0.6,0,1.2-0.5,1.2-1.2V23.7h-3v2.7c0,0.7-0.5,1.2-1.2,1.2h-4c-0.7,0-1.2-0.5-1.2-1.2v-2.7H11.9v2.7c0,0.7-0.6,1.2-1.2,1.2h-4
	c-0.7,0-1.2-0.5-1.2-1.2v-2.7H2.5z M48.5,25.2h1.5v-1.5h-1.5V25.2z M7.9,25.2h1.5v-1.5H7.9V25.2z M51.3,21.2h4.2v-5.5
	c0-0.6-0.5-1.2-1.2-1.2H3.6c-0.6,0-1.2,0.5-1.2,1.2v5.5H51.3L51.3,21.2z M35.9,12.1h1.2v-0.9c0-4.8-3.9-8.7-8.8-8.7
	s-8.8,3.9-8.8,8.7v0.9h1.2v-0.9c0-4.1,3.4-7.5,7.5-7.5s7.5,3.4,7.5,7.5L35.9,12.1L35.9,12.1z M23.3,12.1h10.2v-0.9
	c0-2.8-2.3-5-5.1-5s-5.1,2.3-5.1,5L23.3,12.1L23.3,12.1z M31,42.5h-4.4c-0.7,0-1.2-0.5-1.2-1.2v-3.8h-3.8c-0.3,0-0.6-0.1-0.9-0.4
	c-0.2-0.2-0.4-0.5-0.4-0.9v-4.4c0-0.7,0.5-1.2,1.2-1.2l0,0h3.8v-3.8c0-0.7,0.5-1.2,1.2-1.2H31c0.7,0,1.2,0.5,1.2,1.2v3.8H36
	c0.3,0,0.6,0.1,0.9,0.4c0.2,0.2,0.4,0.5,0.4,0.9v4.4c0,0.7-0.5,1.2-1.2,1.2l0,0h-3.8v3.8c0,0.3-0.1,0.6-0.4,0.9
	C31.6,42.4,31.3,42.5,31,42.5z M27.9,40.1h1.9v-3.8c0-0.3,0.1-0.6,0.4-0.9c0.2-0.2,0.5-0.4,0.9-0.4l0,0h3.8v-1.9H31
	c-0.7,0-1.2-0.5-1.2-1.2v-3.8h-1.9v3.8c0,0.3-0.1,0.6-0.4,0.9c-0.2,0.2-0.5,0.4-0.9,0.4l0,0h-3.8V35h3.8c0.7,0,1.2,0.5,1.2,1.2V40.1
	z"/>
</svg>
