<?xml version="1.0" encoding="utf-8"?>
<!-- Generator: Adobe Illustrator 25.1.0, SVG Export Plug-In . SVG Version: 6.00 Build 0)  -->
<svg version="1.1" id="Layer_1" xmlns="http://www.w3.org/2000/svg" xmlns:xlink="http://www.w3.org/1999/xlink" x="0px" y="0px"
	 viewBox="0 0 58 48" style="enable-background:new 0 0 58 48;" xml:space="preserve">
<style type="text/css">
	.st0{fill:#FFFFFF;}
</style>
<g>
	<path d="M2659.1,1211.1v-2c0-2.8-5-4-9.7-4s-9.7,1.3-9.7,4v2c0,1.8,0.7,3.6,2,4.9l5,4.9c0.3,0.3,0.4,0.6,0.4,1v6.4
		c0,0.4,0.2,0.7,0.6,0.8l2.9,0.9c0.5,0.1,1-0.2,1-0.8v-7.2c0-0.4,0.2-0.7,0.4-1l5.1-5C2658.4,1214.7,2659.1,1212.9,2659.1,1211.1z
		 M2649.4,1211c-4.8,0-7.4-1.3-7.5-1.8l0,0c0.1-0.5,2.7-1.8,7.5-1.8s7.3,1.3,7.5,1.8C2656.7,1209.7,2654.2,1211,2649.4,1211z"/>
	<path d="M2654.4,1221.3c-0.6,0-1,0.4-1,1s0.4,1,1,1h4.3c0.6,0,1-0.4,1-1s-0.4-1-1-1H2654.4z"/>
	<path d="M2658.7,1224.7h-4.3c-0.6,0-1,0.4-1,1s0.4,1,1,1h4.3c0.6,0,1-0.4,1-1S2659.3,1224.7,2658.7,1224.7z"/>
	<path d="M2658.7,1228h-4.3c-0.6,0-1,0.4-1,1s0.4,1,1,1h4.3c0.6,0,1-0.4,1-1C2659.7,1228.5,2659.3,1228,2658.7,1228z"/>
</g>
<g>
	<path d="M-2559.3-1127.9c0.7,0,1.5-0.3,2.1-0.9c1.1-1.1,1.1-3,0-4.1l-7.3-7.3v-16c0-1.6-1.3-2.9-2.9-2.9c-1.6,0-2.9,1.3-2.9,2.9
		v17.2c0,0.8,0.3,1.5,0.8,2.1l8.2,8.2C-2560.8-1128.2-2560-1127.9-2559.3-1127.9z"/>
	<path d="M-2516.8-1140.7c-0.4-0.7-1.1-1.1-2-1.1h-4.8c-1.4-23-20.5-41.2-43.9-41.2c-24.3,0-44,19.8-44,44s19.8,44,44,44
		c13.6,0,26.3-6.2,34.7-16.9c1-1.3,0.8-3.1-0.5-4.1s-3.1-0.8-4.1,0.5c-7.3,9.3-18.3,14.7-30.1,14.7c-21,0-38.2-17.1-38.2-38.2
		s17.2-38.2,38.2-38.2c20.1,0,36.6,15.7,38.1,35.4h-4.5c-0.8,0-1.5,0.4-2,1.1c-0.4,0.7-0.4,1.6,0,2.2l7.6,13.5
		c0.4,0.7,1.2,1.2,2,1.2s1.6-0.4,2-1.2l7.6-13.4C-2516.4-1139.1-2516.4-1140-2516.8-1140.7z"/>
	<circle cx="-2567.5" cy="-1168.1" r="3.8"/>
	<circle cx="-2588.1" cy="-1159.6" r="3.8"/>
	<circle cx="-2596.6" cy="-1139" r="3.8"/>
	<circle cx="-2588.1" cy="-1118.4" r="3.8"/>
	<circle cx="-2567.5" cy="-1109.9" r="3.8"/>
	<circle cx="-2546.9" cy="-1118.4" r="3.8"/>
	<circle cx="-2546.9" cy="-1159.6" r="3.8"/>
</g>
<g>
	<path class="st0" d="M47.1,19.5c-0.2-0.5-0.7-0.9-1.3-0.9h-3.1v-1.4c0-0.8-0.6-1.4-1.4-1.4H11.7c-0.8,0-1.4,0.6-1.4,1.4v5.3
		c0,8.2,6.7,15,15,15h2.5c5.6,0,10.5-3.1,13.1-7.6c2.6-0.2,4.4-1,5.6-2.7c0.9-1.3,1.2-2.8,1.2-4.3C47.7,21.1,47.2,19.6,47.1,19.5z
		 M27.8,34.8h-2.5c-6.8,0-12.3-5.5-12.3-12.3v-3.9h27v3.9C40.1,29.2,34.6,34.8,27.8,34.8z M44.2,25.6c-0.4,0.7-1.2,1.1-2.1,1.3
		c0.4-1.4,0.7-2.9,0.7-4.4v-1.1h2C45,22.5,45.1,24.4,44.2,25.6z"/>
	<path class="st0" d="M41.4,42.5H11.7c-0.8,0-1.4-0.6-1.4-1.4s0.6-1.4,1.4-1.4h29.8c0.8,0,1.4,0.6,1.4,1.4S42.2,42.5,41.4,42.5z"/>
</g>
<g>
	<path class="st0" d="M16.3,12.9c-0.1,0-0.2,0-0.3-0.1c-0.7-0.2-1.1-0.9-1-1.7c0.7-2.6,1.9-3.4,2.8-4c0.7-0.5,1.1-0.8,1.3-2.1
		c0.1-0.8,0.8-1.3,1.5-1.2c0.8,0.1,1.3,0.8,1.1,1.5c-0.4,2.5-1.5,3.3-2.5,3.9c-0.8,0.5-1.3,0.9-1.7,2.4
		C17.5,12.5,16.9,12.9,16.3,12.9z"/>
	<path class="st0" d="M25.3,12.9c-0.1,0-0.2,0-0.3-0.1c-0.7-0.2-1.1-0.9-1-1.7c0.7-2.6,1.9-3.4,2.8-4c0.7-0.5,1.1-0.8,1.3-2.1
		c0.1-0.8,0.8-1.3,1.5-1.2c0.8,0.1,1.3,0.8,1.1,1.5c-0.4,2.5-1.5,3.3-2.5,3.9c-0.8,0.5-1.3,0.9-1.7,2.4
		C26.5,12.5,25.9,12.9,25.3,12.9z"/>
	<path class="st0" d="M34.3,12.9c-0.1,0-0.2,0-0.3-0.1c-0.7-0.2-1.2-0.9-1-1.7c0.7-2.6,1.9-3.4,2.8-4c0.7-0.5,1.1-0.8,1.3-2.1
		c0.1-0.8,0.8-1.3,1.5-1.2c0.8,0.1,1.3,0.8,1.2,1.5c-0.4,2.5-1.5,3.3-2.5,3.9c-0.8,0.5-1.3,0.9-1.7,2.4
		C35.4,12.5,34.9,12.9,34.3,12.9z"/>
</g>
</svg>
