<?xml version="1.0" encoding="utf-8"?>
<!-- Generator: Adobe Illustrator 25.1.0, SVG Export Plug-In . SVG Version: 6.00 Build 0)  -->
<svg version="1.1" id="Layer_1" xmlns="http://www.w3.org/2000/svg" xmlns:xlink="http://www.w3.org/1999/xlink" x="0px" y="0px"
	 viewBox="0 0 58 48" style="enable-background:new 0 0 58 48;" xml:space="preserve">
<style type="text/css">
	.st0{fill:#FFFFFF;}
</style>
<g>
	<path d="M2659.1,1211.1v-2c0-2.8-5-4-9.7-4s-9.7,1.3-9.7,4v2c0,1.8,0.7,3.6,2,4.9l5,4.9c0.3,0.3,0.4,0.6,0.4,1v6.4
		c0,0.4,0.2,0.7,0.6,0.8l2.9,0.9c0.5,0.1,1-0.2,1-0.8v-7.2c0-0.4,0.2-0.7,0.4-1l5.1-5C2658.4,1214.7,2659.1,1212.9,2659.1,1211.1z
		 M2649.4,1211c-4.8,0-7.4-1.3-7.5-1.8l0,0c0.1-0.5,2.7-1.8,7.5-1.8s7.3,1.3,7.5,1.8C2656.7,1209.7,2654.2,1211,2649.4,1211z"/>
	<path d="M2654.4,1221.3c-0.6,0-1,0.4-1,1s0.4,1,1,1h4.3c0.6,0,1-0.4,1-1s-0.4-1-1-1H2654.4z"/>
	<path d="M2658.7,1224.7h-4.3c-0.6,0-1,0.4-1,1s0.4,1,1,1h4.3c0.6,0,1-0.4,1-1S2659.3,1224.7,2658.7,1224.7z"/>
	<path d="M2658.7,1228h-4.3c-0.6,0-1,0.4-1,1s0.4,1,1,1h4.3c0.6,0,1-0.4,1-1C2659.7,1228.5,2659.3,1228,2658.7,1228z"/>
</g>
<g>
	<path d="M-2559.3-1127.9c0.7,0,1.5-0.3,2.1-0.9c1.1-1.1,1.1-3,0-4.1l-7.3-7.3v-16c0-1.6-1.3-2.9-2.9-2.9c-1.6,0-2.9,1.3-2.9,2.9
		v17.2c0,0.8,0.3,1.5,0.8,2.1l8.2,8.2C-2560.8-1128.2-2560-1127.9-2559.3-1127.9z"/>
	<path d="M-2516.8-1140.7c-0.4-0.7-1.1-1.1-2-1.1h-4.8c-1.4-23-20.5-41.2-43.9-41.2c-24.3,0-44,19.8-44,44s19.8,44,44,44
		c13.6,0,26.3-6.2,34.7-16.9c1-1.3,0.8-3.1-0.5-4.1s-3.1-0.8-4.1,0.5c-7.3,9.3-18.3,14.7-30.1,14.7c-21,0-38.2-17.1-38.2-38.2
		s17.2-38.2,38.2-38.2c20.1,0,36.6,15.7,38.1,35.4h-4.5c-0.8,0-1.5,0.4-2,1.1c-0.4,0.7-0.4,1.6,0,2.2l7.6,13.5
		c0.4,0.7,1.2,1.2,2,1.2s1.6-0.4,2-1.2l7.6-13.4C-2516.4-1139.1-2516.4-1140-2516.8-1140.7z"/>
	<circle cx="-2567.5" cy="-1168.1" r="3.8"/>
	<circle cx="-2588.1" cy="-1159.6" r="3.8"/>
	<circle cx="-2596.6" cy="-1139" r="3.8"/>
	<circle cx="-2588.1" cy="-1118.4" r="3.8"/>
	<circle cx="-2567.5" cy="-1109.9" r="3.8"/>
	<circle cx="-2546.9" cy="-1118.4" r="3.8"/>
	<circle cx="-2546.9" cy="-1159.6" r="3.8"/>
</g>
<g>
	<path class="st0" d="M47,42.1H11c-0.3,0-0.6-0.1-0.8-0.3C10,41.6,9.9,41.3,9.9,41c0,0,0,0,0-0.1c0-0.1,0-0.1,0-0.2v0
		c0-2.6,0.5-5.1,1.5-7.5c0.5-1.2,1.1-2.3,1.8-3.3c0.7-1,1.5-2,2.3-2.9c0.9-0.9,1.8-1.7,2.8-2.4c1-0.7,2.1-1.3,3.2-1.8
		c2.4-1,4.8-1.5,7.4-1.5l0,0c1.3,0,2.6,0.1,3.9,0.4c1.2,0.3,2.5,0.7,3.7,1.2c0.3,0.1,0.5,0.3,0.6,0.6s0.1,0.6,0,0.8
		c-0.2,0.4-0.6,0.6-1,0.6c-0.2,0-0.3,0-0.5-0.1c-2.1-1-4.4-1.5-6.7-1.5c-4.5,0-8.7,1.8-11.9,5.1c-3,3.1-4.8,7.1-5,11.4h33.7
		c-0.2-2.9-1.1-5.7-2.6-8.2l0,0c-0.1-0.2-0.2-0.4-0.2-0.6c0-0.4,0.2-0.7,0.5-0.9c0.2-0.1,0.4-0.2,0.6-0.2c0.4,0,0.7,0.2,0.9,0.5l0,0
		c0,0,0,0,0,0c1.9,3.2,3,6.8,3,10.4c0,0.3-0.1,0.6-0.3,0.8C47.5,42,47.2,42.1,47,42.1z M40.7,28c-0.3,0-0.5-0.1-0.7-0.3
		c-0.2-0.2-0.3-0.5-0.4-0.8c0-0.3,0.1-0.6,0.3-0.8c0.2-0.2,0.5-0.4,0.8-0.4c0.3,0,0.5,0.1,0.7,0.3l0,0c0.5,0.4,0.5,1.1,0.1,1.5
		C41.3,27.9,41,28,40.7,28z"/>
</g>
<g>
	<path class="st0" d="M29,23.5L29,23.5c-1.3,0-2.5-0.5-3.5-1.4s-1.4-2.1-1.4-3.5c0-1.3,0.5-2.5,1.4-3.4c0.9-0.9,2.1-1.4,3.5-1.4
		c1.3,0,2.5,0.5,3.5,1.4c0.9,0.9,1.4,2.2,1.4,3.4s-0.5,2.5-1.4,3.5c-0.5,0.5-1,0.8-1.5,1C30.3,23.3,29.6,23.5,29,23.5z M29,15.9
		c-1.5,0-2.7,1.2-2.7,2.7s1.2,2.7,2.7,2.7s2.7-1.2,2.7-2.7C31.7,17.1,30.5,15.9,29,15.9L29,15.9z"/>
</g>
<g>
	<path class="st0" d="M47.6,46.5H10.4c-0.9,0-1.7-0.3-2.3-1s-1-1.4-1-2.3s0.3-1.7,1-2.3s1.4-1,2.3-1H21c0.6,0,1.1,0.5,1.1,1.1
		s-0.5,1.1-1.1,1.1H10.4c-0.6,0-1.1,0.5-1.1,1.1s0.5,1.1,1.1,1.1h37.2c0.6,0,1.1-0.5,1.1-1.1s-0.5-1.1-1.1-1.1H32l0,0
		c-0.6,0-1.1-0.5-1.1-1.1s0.5-1.1,1.1-1.1h15.6c0.9,0,1.7,0.3,2.3,1s1,1.4,1,2.3s-0.3,1.7-1,2.3S48.4,46.5,47.6,46.5z M26.5,42.1
		c-0.6,0-1.1-0.5-1.1-1.1s0.5-1.1,1.1-1.1s1.1,0.5,1.1,1.1C27.6,41.6,27.1,42.1,26.5,42.1z"/>
</g>
<g>
	<path class="st0" d="M23.1,37.7H11.5c-0.6,0-1.1-0.5-1.1-1.1s0.5-1.1,1.1-1.1h11.6c0.6,0,1.1,0.5,1.1,1.1S23.7,37.7,23.1,37.7z"/>
</g>
<g>
	<path class="st0" d="M46.1,37.7H35.5c-0.6,0-1.1-0.5-1.1-1.1s0.5-1.1,1.1-1.1h10.5c0.6,0,1.1,0.5,1.1,1.1
		C47.2,37.2,46.7,37.7,46.1,37.7z"/>
</g>
<g>
	<path class="st0" d="M26.8,37.7c-0.3,0-0.6-0.1-0.8-0.3s-0.3-0.5-0.3-0.8c0-0.3,0.1-0.6,0.3-0.8c0.2-0.2,0.5-0.3,0.8-0.3
		s0.6,0.1,0.8,0.3s0.3,0.5,0.3,0.8c0,0.3-0.1,0.6-0.3,0.8C27.4,37.6,27.1,37.7,26.8,37.7z"/>
</g>
<g>
	<path class="st0" d="M28.7,12.1L28.7,12.1c-0.2,0-0.5-0.1-0.7-0.2c-0.5-0.4-0.6-1.1-0.2-1.5l0,0c0,0,0,0,0,0s0,0,0,0v0
		c0-0.1,0.1-0.1,0.1-0.2c0.1-0.2,0.3-0.4,0.4-0.7C28.7,8.8,29,8,29,7.5c0-0.2,0-0.3-0.1-0.4c0-0.1-0.1-0.2-0.2-0.3
		c-1.2-1.2-1.4-2.5-1.3-3c0-0.7,0.2-1.3,0.3-1.5l0,0c0.2-0.4,0.6-0.6,1-0.6c0.2,0,0.3,0,0.5,0.1c0.3,0.1,0.5,0.3,0.5,0.6
		s0.1,0.6,0,0.8c0,0,0,0,0,0s0,0,0,0.1c0,0.1-0.1,0.2-0.1,0.4c0,0.4,0.1,0.9,0.7,1.5c0.3,0.3,0.5,0.7,0.7,1.1
		c0.1,0.3,0.2,0.7,0.2,1.2c0,1.1-0.4,2.1-0.8,2.8c-0.3,0.7-0.7,1.1-0.8,1.3l0,0C29.4,11.9,29,12.1,28.7,12.1z"/>
</g>
<g>
	<path class="st0" d="M36.3,17c-0.2,0-0.5-0.1-0.7-0.2c-0.5-0.4-0.6-1.1-0.2-1.5l0,0l0,0c0,0,0,0,0,0s0,0,0-0.1c0,0,0.1-0.1,0.1-0.2
		c0.1-0.2,0.3-0.4,0.4-0.7c0.3-0.5,0.6-1.3,0.6-1.8c0-0.2,0-0.3-0.1-0.4s-0.1-0.2-0.2-0.3c-1.2-1.2-1.3-2.5-1.3-3
		c0-0.6,0.1-1.1,0.3-1.5l0,0c0.2-0.4,0.6-0.6,1-0.6c0.2,0,0.3,0,0.5,0.1c0.3,0.1,0.5,0.3,0.5,0.6c0.1,0.3,0.1,0.6,0,0.8l0,0l0,0
		c0,0,0,0.1,0,0.1c0,0.1-0.1,0.2-0.1,0.4c0,0.4,0.1,0.9,0.7,1.5c0.3,0.3,0.5,0.7,0.7,1.1c0.1,0.4,0.2,0.7,0.2,1.1
		c0,1.1-0.4,2.1-0.8,2.8c-0.3,0.6-0.7,1.1-0.8,1.3v0C37,16.8,36.7,17,36.3,17z"/>
</g>
<g>
	<path class="st0" d="M21.5,17c-0.4,0-0.8-0.2-1-0.6v0c-0.2-0.4-0.3-1-0.3-1.5c0-0.5,0.1-1.8,1.3-3c0.1-0.1,0.1-0.2,0.2-0.3
		s0.1-0.2,0.1-0.4c0-0.4-0.2-1.1-0.5-1.8c-0.3-0.6-0.6-1-0.6-1l0,0c-0.3-0.5-0.2-1.2,0.2-1.5c0.2-0.1,0.4-0.2,0.6-0.2
		c0.4,0,0.7,0.2,0.9,0.4v0c0.1,0.1,0.4,0.6,0.8,1.3C23.6,9,24,10,24,11.1c0,0.4-0.1,0.8-0.2,1.1c-0.1,0.4-0.4,0.8-0.7,1.1
		c-0.6,0.6-0.7,1.1-0.7,1.5c0,0.3,0.1,0.5,0.1,0.5c0,0,0,0,0,0c0.1,0.3,0.1,0.6,0,0.8c-0.1,0.3-0.3,0.5-0.5,0.6
		C21.9,16.9,21.7,17,21.5,17z"/>
</g>
<g>
	<g>
		<path class="st0" d="M29.5,36c-0.3,0-0.5-0.1-0.7-0.3c-0.6-0.5-1.1-1-1.7-1.5c-0.3-0.2-0.6-0.5-0.9-0.7c-0.8-0.7-1.6-1.4-2.1-2.3
			c-0.4-0.6-0.6-1.4-0.6-2.1c0-0.9,0.4-1.8,1.1-2.4c0.7-0.6,1.5-1,2.5-1c0,0,0,0,0,0c0.8,0,1.5,0.2,2.1,0.6c0.1,0.1,0.2,0.2,0.4,0.3
			c0.1-0.1,0.2-0.2,0.4-0.3c0.6-0.4,1.3-0.6,2.1-0.6c0.9,0,1.8,0.3,2.5,1c0.7,0.6,1.1,1.5,1.1,2.4c0,0.7-0.2,1.4-0.6,2.1
			c-0.3,0.5-0.7,1-1.3,1.6c-0.5,0.5-1.1,1-1.7,1.5c-0.6,0.5-1.1,0.9-1.7,1.5C30.1,35.8,29.8,36,29.5,36z M27.1,27.9L27.1,27.9
			c-0.4,0-0.7,0.1-1,0.4c-0.2,0.2-0.4,0.5-0.4,0.8c0,0.4,0.1,0.6,0.3,1c0.2,0.3,0.5,0.7,0.9,1.1c0.4,0.4,0.9,0.8,1.5,1.3
			c0.4,0.3,0.7,0.6,1.1,0.9c0.4-0.3,0.7-0.6,1.1-0.9c0.3-0.2,0.6-0.5,0.8-0.7c0.8-0.7,1.3-1.3,1.6-1.7c0.2-0.4,0.3-0.6,0.3-1
			c0-0.3-0.1-0.6-0.4-0.8c-0.3-0.2-0.6-0.4-1-0.4c-0.4,0-0.6,0.1-0.8,0.2c-0.2,0.1-0.4,0.5-0.7,0.9c-0.2,0.4-0.6,0.6-1,0.6
			s-0.8-0.2-1-0.6c-0.2-0.5-0.5-0.8-0.7-0.9C27.7,28,27.5,27.9,27.1,27.9L27.1,27.9L27.1,27.9z"/>
	</g>
</g>
</svg>
