<?xml version="1.0" encoding="utf-8"?>
<!-- Generator: Adobe Illustrator 25.3.0, SVG Export Plug-In . SVG Version: 6.00 Build 0)  -->
<svg version="1.1" id="Layer_1" xmlns="http://www.w3.org/2000/svg" xmlns:xlink="http://www.w3.org/1999/xlink" x="0px" y="0px"
	 viewBox="0 0 58 48" style="enable-background:new 0 0 58 48;" xml:space="preserve">
<style type="text/css">
	.st0{fill:#FFFFFF;}
</style>
<g>
	<path class="st0" d="M16.5,14c1.7,0,3.3-0.6,4.5-1.9c1.2-1.2,1.8-2.8,1.8-4.5S22.1,4.2,21,3.1s-2.8-1.8-4.5-1.8S13.1,1.9,12,3.2
		c-1.2,1.2-1.8,2.8-1.8,4.5s0.6,3.3,1.8,4.5C13.3,13.3,14.8,14,16.5,14L16.5,14z M16.5,2.8c1.3,0,2.4,0.5,3.3,1.4s1.4,2.2,1.4,3.5
		s-0.5,2.6-1.4,3.5c-0.9,0.9-2,1.4-3.3,1.4S14,12,13.1,11.1c-0.9-0.9-1.4-2.2-1.4-3.5s0.5-2.6,1.4-3.5C14,3.3,15.2,2.8,16.5,2.8z"/>
	<path class="st0" d="M9,22.4l0.8,24.7c0,0.4,0.4,0.8,0.8,0.8h2.9c0.4,0,0.6-0.3,0.8-0.6l2.2-11.4l2.2,11.4c0.1,0.4,0.4,0.6,0.8,0.6
		h2.9c0.4,0,0.8-0.4,0.8-0.8l0.8-24.7l5-8.5l5.5,8.5l-2.8,16c0,0.3,0.1,0.6,0.4,0.8c0.8,0.4,1.7,0.8,2.6,1v7c0,0.3,0.1,0.4,0.3,0.5
		c0.1,0.1,0.4,0.3,0.5,0.3h2.9c0.4,0,0.6-0.3,0.8-0.6l1.3-6.4h1h1l1.3,6.4c0.1,0.4,0.4,0.6,0.8,0.6h2.9c0.4,0,0.8-0.4,0.8-0.8v-7
		c0.9-0.3,1.8-0.5,2.6-1c0.3-0.1,0.4-0.5,0.4-0.8l-2.8-15.9l7.4-11.3c0.5-0.8,0.5-1.7,0.3-2.4c-0.4-0.8-1-1.4-1.9-1.5
		c-0.9-0.1-1.7,0.1-2.3,0.8l-7.3,7.6h-5.9l-7.3-7.6c-0.5-0.6-1.4-0.9-2.2-0.8c-0.8-0.1-1.7,0.1-2.2,0.8l-7.3,7.6h-6L6.4,7.9
		c-0.6-0.6-1.5-1-2.3-0.8C3.2,7.3,2.5,7.8,2.1,8.6C1.7,9.3,1.9,10.2,2.3,11L9,22.4z M37.7,46.4h-1.7v-5.9c0.9,0.1,1.8,0.3,2.7,0.4
		L37.7,46.4z M46.6,46.4h-1.7l-1-5.5c0.9-0.1,1.8-0.3,2.7-0.4V46.4z M52.6,8.8c0.4-0.4,1-0.4,1.4,0c0.4,0.4,0.5,0.9,0.3,1.4
		l-6.8,10.4l-1.9-4.2L52.6,8.8z M38.6,16.9h5.5l2.4,5.5l2.8,15.5c-0.8,0.3-1.5,0.5-2.3,0.8c-0.4,0.1-0.9,0.1-1.3,0.3l0,0
		c-1,0.1-1.9,0.3-2.9,0.4c-1,0-2.2,0-3.1,0c-0.4,0-0.8,0-1.2-0.1l0,0c-1-0.1-2-0.3-2.9-0.5c-0.8-0.1-1.5-0.4-2.3-0.8l2.7-15.6
		L38.6,16.9z M28.6,8.8c0.1-0.1,0.4-0.3,0.6-0.3c0.3,0,0.5,0.1,0.8,0.3l7.2,7.4l-1.9,4.2l-6.8-10.4C28.1,9.7,28.3,9.1,28.6,8.8
		L28.6,8.8z M3.8,8.8c0.4-0.4,1-0.3,1.4,0.1l7.6,7.8c0.1,0.1,0.4,0.3,0.5,0.3h6.5c0.3,0,0.4-0.1,0.5-0.3l6.5-6.8
		c0,0.4,0.1,0.8,0.4,1l1,1.5l-5.5,9.2c-0.1,0.1-0.1,0.3-0.1,0.4l-0.8,24.2h-1.7l-2.9-14.6c-0.1-0.4-0.4-0.6-0.8-0.6
		c-0.4,0-0.6,0.3-0.8,0.6l-2.8,14.6h-1.5l-0.9-24.2c0-0.1,0-0.3-0.1-0.4L3.5,10.2C3.3,9.7,3.4,9.2,3.8,8.8L3.8,8.8z"/>
	<path class="st0" d="M29.9,6.1c1.3,0.8,2.8,1.3,4.4,1.3c0.3,0,0.5,0,0.8,0v0.3c-0.1,1.8,0.5,3.5,1.7,4.7s2.8,2,4.6,2
		c1.8,0,3.5-0.8,4.6-2s1.8-3.1,1.7-4.7V7.4c0.3,0,0.5,0,0.8,0c1.5-0.1,3.1-0.5,4.4-1.3c0.4-0.3,0.5-0.6,0.4-1c0-0.1-0.1-0.3-0.4-0.4
		c-0.1-0.1-0.4-0.1-0.5,0c-0.3,0-1-0.4-1.7-2.2l0,0c-0.3-1-1-1.9-1.9-2.3c-0.9-0.4-1.8-0.4-2.7,0c-0.8,0.4-1.4,1-1.8,1.8
		c-1.8-0.9-3.8-0.9-5.6,0c-0.4-0.8-1-1.4-1.8-1.8c-0.9-0.4-1.8-0.4-2.7,0c-0.9,0.5-1.7,1.3-1.9,2.3c-0.6,1.9-1.4,2.3-1.5,2.2
		c-0.4-0.1-0.8,0-0.9,0.4C29.5,5.5,29.7,5.9,29.9,6.1L29.9,6.1z M46.6,1.5L46.6,1.5c0.5-0.1,1-0.1,1.5,0c0.5,0.3,1,0.8,1.2,1.4
		c0.3,0.9,0.8,1.8,1.4,2.4c-1.2,0.5-2.2,0.6-3.3,0.5c-0.4-1.3-1-2.3-1.9-3.1C45.7,2.3,46.1,1.8,46.6,1.5L46.6,1.5z M41.3,2.8
		L41.3,2.8c1.3,0,2.4,0.5,3.3,1.4c0.9,0.9,1.4,2.2,1.4,3.5s-0.5,2.6-1.4,3.5c-0.9,0.9-2,1.4-3.3,1.4S38.9,12,38,11.1
		c-0.9-0.9-1.4-2.2-1.4-3.5s0.5-2.4,1.4-3.5C38.9,3.3,40,2.8,41.3,2.8L41.3,2.8z M33.5,3.1c0.1-0.6,0.5-1.2,1.2-1.4
		c0.5-0.1,1-0.1,1.5,0c0.5,0.3,1,0.6,1.2,1.2c-0.9,0.8-1.7,1.8-1.9,2.9c-1,0.3-2.2,0.1-3.2-0.3C32.7,4.7,33.3,4,33.5,3.1L33.5,3.1z"
		/>
</g>
</svg>
