<?xml version="1.0" encoding="utf-8"?>
<!-- Generator: Adobe Illustrator 25.1.0, SVG Export Plug-In . SVG Version: 6.00 Build 0)  -->
<svg version="1.1" id="Layer_1" xmlns="http://www.w3.org/2000/svg" xmlns:xlink="http://www.w3.org/1999/xlink" x="0px" y="0px"
	 viewBox="0 0 58 48" style="enable-background:new 0 0 58 48;" xml:space="preserve">
<style type="text/css">
	.st0{fill:#FFFFFF;}
</style>
<g>
	<path class="st0" d="M29,30c-5.7,0-10.3,5.1-10.3,11.3c0,1.7,1.4,3,3,3h14.6c1.7,0,3-1.3,3-3C39.3,35.1,34.7,30,29,30z M36.3,41.6
		H21.7c-0.2,0-0.3-0.1-0.3-0.3c0-4.7,3.4-8.6,7.6-8.6s7.6,3.8,7.6,8.6C36.6,41.5,36.5,41.6,36.3,41.6z"/>
	<path class="st0" d="M47.7,20.3c4.2,0,7.7-3.5,7.7-7.7c0-4.2-3.5-7.7-7.7-7.7S40,8.3,40,12.6C40,16.8,43.4,20.3,47.7,20.3z
		 M47.7,7.6c2.8,0,5,2.2,5,5c0,2.8-2.2,5-5,5s-5-2.2-5-5C42.7,9.8,44.9,7.6,47.7,7.6z"/>
	<path class="st0" d="M47.7,21.1c-5.7,0-10.3,5.1-10.3,11.3c0,1.7,1.3,3,3,3H55c1.7,0,3-1.3,3-3C58,26.2,53.4,21.1,47.7,21.1z
		 M55,32.7H40.4c-0.2,0-0.3-0.1-0.3-0.3c0-4.7,3.4-8.6,7.6-8.6s7.6,3.9,7.6,8.6C55.3,32.6,55.1,32.7,55,32.7z"/>
	<path class="st0" d="M29,29.2c4.2,0,7.7-3.5,7.7-7.7c0-4.2-3.5-7.7-7.7-7.7s-7.7,3.5-7.7,7.7C21.3,25.7,24.7,29.2,29,29.2z
		 M29,16.5c2.8,0,5,2.2,5,5c0,2.8-2.2,5-5,5s-5-2.2-5-5C24,18.7,26.2,16.5,29,16.5z"/>
	<path class="st0" d="M10.3,20.3c4.2,0,7.7-3.5,7.7-7.7c0-4.2-3.5-7.7-7.7-7.7s-7.7,3.5-7.7,7.7C2.6,16.8,6.1,20.3,10.3,20.3z
		 M10.3,7.6c2.8,0,5,2.2,5,5c0,2.8-2.2,5-5,5s-5-2.2-5-5C5.3,9.8,7.6,7.6,10.3,7.6z"/>
	<path class="st0" d="M20.6,32.4c0-6.2-4.6-11.3-10.3-11.3S0,26.2,0,32.4c0,1.7,1.4,3,3,3h14.6C19.3,35.5,20.6,34.1,20.6,32.4z
		 M17.6,32.7H3c-0.2,0-0.3-0.1-0.3-0.3c0-4.7,3.4-8.6,7.6-8.6s7.6,3.9,7.6,8.6C17.9,32.6,17.8,32.7,17.6,32.7z"/>
</g>
</svg>
