<?xml version="1.0" encoding="utf-8"?>
<!-- Generator: Adobe Illustrator 25.1.0, SVG Export Plug-In . SVG Version: 6.00 Build 0)  -->
<svg version="1.1" id="Layer_1" xmlns="http://www.w3.org/2000/svg" xmlns:xlink="http://www.w3.org/1999/xlink" x="0px" y="0px"
	 viewBox="0 0 58 48" style="enable-background:new 0 0 58 48;" xml:space="preserve">
<style type="text/css">
	.st0{fill:#FFFFFF;}
</style>
<g>
	<path class="st0" d="M47.8,33.7c-0.4,1.3-1.4,2.4-2.7,3L18.6,48L18,47.8C6.1,42.1,4.5,41.2,4.1,41l2.1-2.1c1.6,0.8,8.1,3.9,12.4,6
		l25.3-10.8c1-0.4,1.5-1.6,1-2.6c0-0.1-0.1-0.2-0.1-0.3c-0.5-0.8-1.5-1.2-2.4-0.8l-19.2,7.9L14,33.7l1.3-2.6l8,4.1l3.3-1.4
		c-0.5-1.1-1.2-2-2-2.9C19.1,25.2,8.8,24.8,2.7,30L0,28.7c0.1-0.2,0.3-0.4,0.5-0.6c7.1-6.4,19.6-6,26.1,0.8c1.1,1.1,2,2.4,2.6,3.8
		l12-4.9c2.5-1,5.3,0.2,6.3,2.6C48,31.5,48.1,32.7,47.8,33.7L47.8,33.7z"/>
	<polygon class="st0" points="22.4,22.5 16.6,16.8 18.7,14.7 22.4,18.4 29.2,11.6 31.3,13.6 	"/>
	<path class="st0" d="M41,17c0,3.3-1,6.5-2.8,9.3h-3.6c5.1-5.9,4.5-14.9-1.4-20s-14.9-4.5-20,1.4C11,10.3,9.8,13.6,9.8,17
		c0,1.5,0.2,3,0.7,4.5h-3c-0.4-1.5-0.6-3-0.6-4.5c0-9.4,7.6-17,17-17S41,7.6,41,17L41,17z"/>
</g>
</svg>
