<?xml version="1.0" encoding="utf-8"?>
<!-- Generator: Adobe Illustrator 25.1.0, SVG Export Plug-In . SVG Version: 6.00 Build 0)  -->
<svg version="1.1" id="Layer_1" xmlns="http://www.w3.org/2000/svg" xmlns:xlink="http://www.w3.org/1999/xlink" x="0px" y="0px"
	 viewBox="0 0 58 48" style="enable-background:new 0 0 58 48;" xml:space="preserve">
<style type="text/css">
	.st0{fill:#FFFFFF;}
</style>
<g>
	<path d="M2659.1,1211.1v-2c0-2.8-5-4-9.7-4s-9.7,1.3-9.7,4v2c0,1.8,0.7,3.6,2,4.9l5,4.9c0.3,0.3,0.4,0.6,0.4,1v6.4
		c0,0.4,0.2,0.7,0.6,0.8l2.9,0.9c0.5,0.1,1-0.2,1-0.8v-7.2c0-0.4,0.2-0.7,0.4-1l5.1-5C2658.4,1214.7,2659.1,1212.9,2659.1,1211.1z
		 M2649.4,1211c-4.8,0-7.4-1.3-7.5-1.8l0,0c0.1-0.5,2.7-1.8,7.5-1.8s7.3,1.3,7.5,1.8C2656.7,1209.7,2654.2,1211,2649.4,1211z"/>
	<path d="M2654.4,1221.3c-0.6,0-1,0.4-1,1s0.4,1,1,1h4.3c0.6,0,1-0.4,1-1s-0.4-1-1-1H2654.4z"/>
	<path d="M2658.7,1224.7h-4.3c-0.6,0-1,0.4-1,1s0.4,1,1,1h4.3c0.6,0,1-0.4,1-1S2659.3,1224.7,2658.7,1224.7z"/>
	<path d="M2658.7,1228h-4.3c-0.6,0-1,0.4-1,1s0.4,1,1,1h4.3c0.6,0,1-0.4,1-1C2659.7,1228.5,2659.3,1228,2658.7,1228z"/>
</g>
<g>
	<path d="M-2559.3-1127.9c0.7,0,1.5-0.3,2.1-0.9c1.1-1.1,1.1-3,0-4.1l-7.3-7.3v-16c0-1.6-1.3-2.9-2.9-2.9c-1.6,0-2.9,1.3-2.9,2.9
		v17.2c0,0.8,0.3,1.5,0.8,2.1l8.2,8.2C-2560.8-1128.2-2560-1127.9-2559.3-1127.9z"/>
	<path d="M-2516.8-1140.7c-0.4-0.7-1.1-1.1-2-1.1h-4.8c-1.4-23-20.5-41.2-43.9-41.2c-24.3,0-44,19.8-44,44s19.8,44,44,44
		c13.6,0,26.3-6.2,34.7-16.9c1-1.3,0.8-3.1-0.5-4.1s-3.1-0.8-4.1,0.5c-7.3,9.3-18.3,14.7-30.1,14.7c-21,0-38.2-17.1-38.2-38.2
		s17.2-38.2,38.2-38.2c20.1,0,36.6,15.7,38.1,35.4h-4.5c-0.8,0-1.5,0.4-2,1.1c-0.4,0.7-0.4,1.6,0,2.2l7.6,13.5
		c0.4,0.7,1.2,1.2,2,1.2s1.6-0.4,2-1.2l7.6-13.4C-2516.4-1139.1-2516.4-1140-2516.8-1140.7z"/>
	<circle cx="-2567.5" cy="-1168.1" r="3.8"/>
	<circle cx="-2588.1" cy="-1159.6" r="3.8"/>
	<circle cx="-2596.6" cy="-1139" r="3.8"/>
	<circle cx="-2588.1" cy="-1118.4" r="3.8"/>
	<circle cx="-2567.5" cy="-1109.9" r="3.8"/>
	<circle cx="-2546.9" cy="-1118.4" r="3.8"/>
	<circle cx="-2546.9" cy="-1159.6" r="3.8"/>
</g>
<g>
	<path class="st0" d="M48.4,28.7h-5.2v-1c0-2.3-1.9-4.2-4.2-4.2s-4.2,1.9-4.2,4.2v1h-3.1V14c0-1.7-1.4-3.1-3.1-3.1h-4.7V3.6
		c0-1.7-1.4-3.1-3.1-3.1h-5.2c-1.7,0-3.1,1.4-3.1,3.1v7.3H7.6c-1.7,0-3.1,1.4-3.1,3.1v27.3c0,1.7,1.4,3.1,3.1,3.1v2.1
		c0,0.6,0.5,1,1.1,1s1.1-0.5,1.1-1v-2.1h16.8c0,1.7,1.4,3.1,3.1,3.1h18.9c1.7,0,3.1-1.4,3.1-3.1V31.9C51.6,30.1,50.2,28.7,48.4,28.7
		z M36.9,27.7c0-1.1,0.9-2.1,2.1-2.1c1.2,0,2.1,0.9,2.1,2.1v1h-4.2L36.9,27.7L36.9,27.7z M31.5,30.8c-0.4,1.5-1.5,2.6-3,3v-1.9
		c0-0.6,0.5-1,1-1H31.5z M14.4,3.6c0-0.6,0.5-1,1.1-1h5.2c0.6,0,1,0.5,1,1v7.3h-7.3C14.4,10.9,14.4,3.6,14.4,3.6z M26.4,42.3H7.6
		c-0.6,0-1-0.5-1-1v-2.1h19.9V42.3z M26.4,31.9v5.2H6.5V18.2h2.1c0.6,0,1.1-0.5,1.1-1s-0.5-1-1.1-1H6.5V14c0-0.6,0.5-1.1,1-1.1h21
		c0.6,0,1,0.5,1,1.1v2.1H13.9c-0.6,0-1.1,0.5-1.1,1s0.5,1,1.1,1h15.7v10.5C27.8,28.7,26.4,30.1,26.4,31.9z M29.6,45.5
		c-0.6,0-1-0.5-1-1v-1.9c1.5,0.4,2.6,1.5,3,3H29.6z M49.5,44.4c0,0.6-0.5,1-1,1h-1.9c0.4-1.5,1.5-2.6,3-3V44.4z M49.5,40.3
		c-2.6,0.4-4.7,2.5-5.1,5.1H33.7c-0.4-2.6-2.5-4.7-5.1-5.1V36c2.6-0.5,4.7-2.5,5.1-5.1h10.7c0.5,2.6,2.5,4.7,5.1,5.1
		C49.5,36,49.5,40.3,49.5,40.3z M49.5,33.8c-1.5-0.4-2.6-1.5-3-3h1.9c0.6,0,1,0.5,1,1C49.5,31.9,49.5,33.8,49.5,33.8z"/>
	<path class="st0" d="M40.4,36.4L39,37.7l-1.4-1.4c-0.4-0.4-1-0.4-1.5,0c-0.4,0.4-0.4,1.1,0,1.5l2.1,2.1c0.2,0.2,0.5,0.3,0.7,0.3
		s0.5-0.1,0.7-0.3l2.1-2.1c0.4-0.4,0.4-1,0-1.5S40.8,36,40.4,36.4z"/>
	<path class="st0" d="M21.8,21.4c-0.1,0-0.2,0-0.3,0c-1.3,0-2.5,0.5-3.4,1.3c-1-0.9-2.4-1.4-3.7-1.3c-1.7,0.1-3,1.1-3.6,2.8
		s-0.1,3.4,1.1,4.6l5.5,4.9c0.2,0.2,0.4,0.3,0.7,0.3s0.5-0.1,0.7-0.3l5.5-5c1.3-1.1,1.7-2.9,1.1-4.6C24.8,22.6,23.4,21.5,21.8,21.4z
		 M22.8,27.2L18,31.5l-4.8-4.3c-0.8-0.7-0.8-1.7-0.6-2.3c0.3-0.8,0.9-1.3,1.8-1.4c0.1,0,0.1,0,0.2,0c1,0,1.9,0.5,2.5,1.4
		c0.2,0.3,0.5,0.5,0.9,0.5c0.4,0,0.7-0.2,0.9-0.5c0.5-0.9,1.5-1.4,2.5-1.4c0,0,0.1,0,0.2,0c0.8,0,1.5,0.6,1.8,1.4
		C23.6,25.5,23.6,26.5,22.8,27.2z"/>
</g>
</svg>
