<?xml version="1.0" encoding="utf-8"?>
<!-- Generator: Adobe Illustrator 25.1.0, SVG Export Plug-In . SVG Version: 6.00 Build 0)  -->
<svg version="1.1" id="Layer_1" xmlns="http://www.w3.org/2000/svg" xmlns:xlink="http://www.w3.org/1999/xlink" x="0px" y="0px"
	 viewBox="0 0 58 48" style="enable-background:new 0 0 58 48;" xml:space="preserve">
<style type="text/css">
	.st0{fill:#FFFFFF;}
</style>
<g>
	<circle class="st0" cx="25.3" cy="21.9" r="1"/>
	<circle class="st0" cx="31.6" cy="21.9" r="1"/>
	<path class="st0" d="M49.3,26.1c0-1.4-0.9-2.5-2.1-3v-9.6C47.2,6.1,41.2,0,33.7,0S20.1,6.1,20.1,13.6V25H7.6v23h39.1V29.2
		C48.2,28.9,49.3,27.6,49.3,26.1z M33.7,2.1c6.3,0,11.5,5.1,11.5,11.5V23h-1c-1.7,0-3.1-1.4-3.1-3.1v-6.3l0,0l0,0c0-0.6-0.5-1-1-1
		c-0.6,0-1,0.5-1,1c0,1.7-1.4,3.1-3.1,3.1H22.2v-3.1C22.2,7.2,27.3,2.1,33.7,2.1z M9.6,31.3h3.1c0.6,0,1,0.5,1,1c0,0.6-0.5,1-1,1
		H9.6V31.3z M9.6,35.5h3.1c0.6,0,1,0.5,1,1c0,0.6-0.5,1-1,1H9.6V35.5z M9.6,39.7h3.1c0.6,0,1,0.5,1,1s-0.5,1-1,1H9.6V39.7z
		 M9.6,45.9v-2.1h3.1l0,0c1.7,0,3.1-1.4,3.1-3.1c0-0.8-0.3-1.5-0.8-2.1c0.5-0.5,0.8-1.3,0.8-2.1c0-0.8-0.3-1.5-0.8-2.1
		c0.5-0.5,0.8-1.3,0.8-2.1c0-1.7-1.4-3.1-3.1-3.1l0,0H9.6v-2.1h10.4v18.8L9.6,45.9L9.6,45.9z M22.2,45.9V27.1h2.1v18.8H22.2z
		 M26.4,45.9V27.1h10.4v2.1h-3.1c-1.7,0-3.1,1.4-3.1,3.1c0,0.8,0.3,1.5,0.8,2.1c-0.5,0.5-0.8,1.3-0.8,2.1c0,0.8,0.3,1.5,0.8,2.1
		c-0.5,0.5-0.8,1.3-0.8,2.1c0,1.7,1.4,3.1,3.1,3.1h3.1v2.1L26.4,45.9L26.4,45.9z M36.8,41.7h-3.1c-0.6,0-1-0.5-1-1s0.5-1,1-1h3.1
		V41.7z M32.6,36.5c0-0.6,0.5-1,1-1h3.1v2.1h-3.1C33.1,37.6,32.6,37.1,32.6,36.5z M33.7,33.4c-0.6,0-1-0.5-1-1c0-0.6,0.5-1,1-1h3.1
		v2.1L33.7,33.4L33.7,33.4z M38.9,45.9v-8.4h5.7v8.3C44.6,45.9,38.9,45.9,38.9,45.9z M46.2,27.1h-1.6v8.4h-5.7V25H22.2v-6.3H36v0
		c1.1,0,2.1-0.4,2.9-1v2.4h0c0.1,2.8,2.4,5,5.2,5h2.1c0.6,0,1,0.5,1,1S46.8,27.1,46.2,27.1z"/>
</g>
</svg>
