<?xml version="1.0" encoding="utf-8"?>
<!-- Generator: Adobe Illustrator 25.1.0, SVG Export Plug-In . SVG Version: 6.00 Build 0)  -->
<svg version="1.1" id="Layer_1" xmlns="http://www.w3.org/2000/svg" xmlns:xlink="http://www.w3.org/1999/xlink" x="0px" y="0px"
	 viewBox="0 0 58 48" style="enable-background:new 0 0 58 48;" xml:space="preserve">
<style type="text/css">
	.st0{fill:#FFFFFF;}
</style>
<path class="st0" d="M46.8,0H1.5C0.8,0,0.2,0.6,0.2,1.4v28c0.2,0.7,0.9,1.2,1.7,1c0.5-0.1,0.9-0.5,1-1V2.7h42.7v32H32.2
	c-0.7-0.2-1.5,0.3-1.7,1c-0.2,0.7,0.3,1.5,1,1.7c0.2,0,0.5,0,0.7,0h14.6c0.8,0,1.4-0.6,1.4-1.4V1.3C48.2,0.6,47.6,0,46.8,0z"/>
<path class="st0" d="M22.2,18.6c0-3.7-3-6.6-6.7-6.6s-6.6,3-6.6,6.7c0,3.7,3,6.6,6.7,6.6C19.2,25.3,22.2,22.3,22.2,18.6
	C22.2,18.7,22.2,18.7,22.2,18.6z M11.5,18.6c0-2.2,1.8-4,4-4s4,1.8,4,4c0,2.2-1.8,4-4,4c0,0,0,0-0.1,0
	C13.3,22.6,11.5,20.8,11.5,18.6z"/>
<path class="st0" d="M33.9,23.9c1.6-1.6,1.6-4.1,0-5.7c-0.3-0.3-0.7-0.6-1-0.8c-1.6-0.7-3.5-0.4-4.7,0.9l-9,9
	c-1.2-0.5-2.4-0.7-3.7-0.7c-5.6,0.3-9.9,4.9-9.9,10.4v8.7c0,1.6,0.6,2.2,1.4,2.2h17.3c0.8,0,1.4-0.6,1.4-1.4v-10
	c0-1.2-0.2-2.5-0.7-3.7L33.9,23.9z M23.3,30.8c-0.9,1-1.2,2.4-0.8,3.7c0.1,0.2,0.1,0.5,0.2,0.7c0.1,0.5,0.1,1,0.1,1.5v8.7H8.2v-8.4
	c-0.1-4.1,3.1-7.5,7.2-7.6c0.6,0,1.1,0,1.6,0.2c0.3,0,0.5,0.1,0.8,0.2h0.1l0.4,0.1c1.1,0.2,2.2-0.1,3-0.9l0.2-0.2l0,0l0.1-0.1
	l8.5-8.5c0.5-0.5,1.4-0.5,1.9,0c0.5,0.5,0.5,1.4,0,1.9l-8.5,8.5L23.3,30.8z"/>
</svg>
