<?xml version="1.0" encoding="utf-8"?>
<!-- Generator: Adobe Illustrator 25.1.0, SVG Export Plug-In . SVG Version: 6.00 Build 0)  -->
<svg version="1.1" id="Layer_1" xmlns="http://www.w3.org/2000/svg" xmlns:xlink="http://www.w3.org/1999/xlink" x="0px" y="0px"
	 viewBox="0 0 58 48" style="enable-background:new 0 0 58 48;" xml:space="preserve">
<style type="text/css">
	.st0{fill:#FFFFFF;}
</style>
<path class="st0" d="M52.9,15.6c-0.7,0-1.5,0.1-2.2,0.4v-1.8c0-2.4-1.9-4.3-4.3-4.3h-4.3c-2.4,0-4.3,1.9-4.3,4.3v5.8H20.4v-5.8
	c0-2.4-1.9-4.3-4.3-4.3h-4.3c-2.4,0-4.3,1.9-4.3,4.3v1.8c-0.7-0.3-1.4-0.4-2.2-0.4c-2.8,0-5.1,1.8-5.1,4.1v12c0,2.3,2.2,4.1,5.1,4.1
	c0.7,0,1.5-0.1,2.2-0.4v0.4c0,2.4,1.9,4.3,4.3,4.3H16c2.4,0,4.3-1.9,4.3-4.3V30h17.4v5.8c0,2.4,1.9,4.3,4.3,4.3h4.3
	c2.4,0,4.3-1.9,4.3-4.3v-0.4c0.7,0.3,1.4,0.4,2.2,0.4c2.8,0,5.1-1.8,5.1-4.1v-12C58,17.4,55.7,15.6,52.9,15.6z M36.3,22.8v4.3H20.4
	v-4.3H36.3z M5.2,32.9C4,32.9,3,32.2,3,31.7v-12c0-0.6,1-1.2,2.2-1.2s2.2,0.7,2.2,1.2v12C7.4,32.2,6.4,32.9,5.2,32.9z M17.5,35.8
	c0,0.8-0.6,1.5-1.5,1.5h-4.3c-0.8,0-1.4-0.7-1.4-1.5V14.1c0-0.8,0.6-1.4,1.4-1.4H16c0.8,0,1.5,0.6,1.5,1.4V35.8z M47.8,35.8
	c0,0.8-0.7,1.5-1.5,1.5h-4.3c-0.8,0-1.5-0.7-1.5-1.5V14.1c0-0.8,0.7-1.4,1.5-1.4h4.3c0.8,0,1.5,0.6,1.5,1.4V35.8z M55.1,31.7
	c0,0.6-1,1.2-2.2,1.2c-1.2,0-2.2-0.7-2.2-1.2v-12c0-0.6,1-1.2,2.2-1.2c1.2,0,2.2,0.7,2.2,1.2V31.7z"/>
</svg>
