<?xml version="1.0" encoding="utf-8"?>
<!-- Generator: Adobe Illustrator 25.3.0, SVG Export Plug-In . SVG Version: 6.00 Build 0)  -->
<svg version="1.0" id="Layer_1" xmlns="http://www.w3.org/2000/svg" xmlns:xlink="http://www.w3.org/1999/xlink" x="0px" y="0px"
	 viewBox="0 0 45 45" style="enable-background:new 0 0 45 45;" xml:space="preserve">
<style type="text/css">
	.st0{fill:#F5F9FF;}
	.st1{fill:#FFCA00;}
	.st2{fill:#297AFB;stroke:#2176FF;stroke-width:0.25;}
	.st3{fill:#1F69F6;}
	.st4{fill:#171E29;}
</style>
<circle class="st0" cx="22.5" cy="22.5" r="22.5"/>
<g>
	<path class="st1" d="M-27.2,12.9h2.7v2.7h-2.7V12.9z"/>
	<path class="st1" d="M-27.2,17h2.7v2.7h-2.7V17z"/>
	<path class="st1" d="M-31.2,12.9h2.7v2.7h-2.7V12.9z"/>
	<path class="st1" d="M-31.2,17h2.7v2.7h-2.7V17z"/>
	<path class="st2" d="M-25.8,22.3v4h-16.1V15.6h8.1v-1.3h-8.1c-0.4,0-0.7,0.1-0.9,0.4c-0.3,0.3-0.4,0.6-0.4,0.9v10.7
		c0,0.4,0.1,0.7,0.4,0.9c0.3,0.3,0.6,0.4,0.9,0.4h5.4v2.7h-2.7v1.3h10.7v-1.3h-2.7v-2.7h5.4c0.4,0,0.7-0.1,0.9-0.4
		c0.3-0.3,0.4-0.6,0.4-0.9v-4H-25.8z M-32.5,30.4h-2.7v-2.7h2.7V30.4z"/>
</g>
<path class="st3" d="M31,12.8H14c-0.9,0-1.7,0.8-1.7,1.7v11.5c0,0.9,0.8,1.7,1.7,1.7h6.4V31h-4.3v1.5h12.9V31h-4.3v-3.3H31
	c1,0,1.7-0.8,1.7-1.7V14.6C32.7,13.6,31.9,12.8,31,12.8z M31.2,26.1c0,0.1-0.1,0.2-0.2,0.2H14c-0.1,0-0.2-0.1-0.2-0.2V14.6
	c0-0.1,0.1-0.2,0.2-0.2H31c0.1,0,0.2,0.1,0.2,0.2V26.1z"/>
<image style="overflow:visible;" width="1000" height="600" xlink:href="../../ragzonlogo/ragzon-Logo.png"  transform="matrix(3.817817e-02 0 0 3.817817e-02 0.9001 -26.8604)">
</image>
<rect x="18.4" y="20.6" class="st4" width="1.3" height="3"/>
<rect x="20.7" y="19.4" class="st4" width="1.3" height="4.2"/>
<rect x="23" y="18.5" class="st4" width="1.3" height="5.1"/>
<rect x="25.4" y="17.1" class="st4" width="1.3" height="6.5"/>
</svg>
