<?xml version="1.0" encoding="utf-8"?>
<!-- Generator: Adobe Illustrator 25.3.0, SVG Export Plug-In . SVG Version: 6.00 Build 0)  -->
<svg version="1.0" id="Layer_1" xmlns="http://www.w3.org/2000/svg" xmlns:xlink="http://www.w3.org/1999/xlink" x="0px" y="0px"
	 viewBox="0 0 45 45" style="enable-background:new 0 0 45 45;" xml:space="preserve">
<style type="text/css">
	.st0{fill:#F5F9FF;}
	.st1{fill:#171E29;}
	.st2{fill:#1F69F6;}
</style>
<circle class="st0" cx="22.5" cy="22.5" r="22.5"/>
<g>
	<path class="st1" d="M29.2,13.1h2.7v2.7h-2.7V13.1z"/>
	<path class="st1" d="M29.2,17.1h2.7v2.7h-2.7V17.1z"/>
	<path class="st1" d="M25.2,13.1h2.7v2.7h-2.7V13.1z"/>
	<path class="st1" d="M25.2,17.1h2.7v2.7h-2.7V17.1z"/>
	<path class="st2" d="M30.6,22.5v4H14.4V15.8h8.1v-1.3h-8.1c-0.4,0-0.7,0.1-0.9,0.4c-0.3,0.3-0.4,0.6-0.4,0.9v10.7
		c0,0.4,0.1,0.7,0.4,0.9c0.3,0.3,0.6,0.4,0.9,0.4h5.4v2.7h-2.7v1.3h10.7v-1.3h-2.7v-2.7h5.4c0.4,0,0.7-0.1,0.9-0.4
		c0.3-0.3,0.4-0.6,0.4-0.9v-4H30.6z M23.8,30.6h-2.7v-2.7h2.7V30.6z"/>
</g>
<path class="st2" d="M-61.4,34h-16.9c-0.9,0-1.7,0.8-1.7,1.7v11.5c0,0.9,0.8,1.7,1.7,1.7h6.4v3.3h-4.3v1.5h12.9v-1.5h-4.3v-3.3h6.4
	c1,0,1.7-0.8,1.7-1.7V35.7C-59.7,34.7-60.5,34-61.4,34z M-61.2,47.2c0,0.1-0.1,0.2-0.2,0.2h-16.9c-0.1,0-0.2-0.1-0.2-0.2V35.7
	c0-0.1,0.1-0.2,0.2-0.2h16.9c0.1,0,0.2,0.1,0.2,0.2V47.2z"/>
<image style="overflow:visible;" width="1000" height="600" xlink:href="../../ragzonlogo/ragzon-Logo.png"  transform="matrix(3.817817e-02 0 0 3.817817e-02 0.9001 -26.8604)">
</image>
<rect x="-74" y="41.7" class="st1" width="1.3" height="3"/>
<rect x="-71.7" y="40.5" class="st1" width="1.3" height="4.2"/>
<rect x="-69.4" y="39.6" class="st1" width="1.3" height="5.1"/>
<rect x="-67" y="38.2" class="st1" width="1.3" height="6.5"/>
</svg>
