<svg xmlns="http://www.w3.org/2000/svg" viewBox="0 0 48 48"><path d="M39.66,34.52H30.94V31.83h8.72a5,5,0,0,0,4.93-4.92,4.79,4.79,0,0,0-3.81-4.7L39.66,22l.23-1.35V19.52a13,13,0,0,0-13-13,12.76,12.76,0,0,0-11.86,7.6l-.45,1.12-1.12-.22a6.27,6.27,0,0,0-2-.22A8.49,8.49,0,0,0,3,23.33a8.31,8.31,0,0,0,8.27,8.5h6v2.91h-6a11.22,11.22,0,0,1-11-11.41A11.46,11.46,0,0,1,11.69,11.92H13A15.55,15.55,0,0,1,26.91,3.64,16,16,0,0,1,42.8,19.52v.23a7.78,7.78,0,0,1,4.92,7.16A7.94,7.94,0,0,1,39.66,34.52Z"/><circle cx="21.76" cy="33.17" r="5.59"/><path d="M21.76,44.36a10.68,10.68,0,0,1-6.49-2l1.57-2.24a7.61,7.61,0,0,0,4.92,1.57A8.26,8.26,0,0,0,30,33.4a8.4,8.4,0,0,0-8.28-8.28,9.28,9.28,0,0,0-4.25,1.12l-1.57-2.69A10.84,10.84,0,0,1,21.76,22a11.19,11.19,0,1,1,0,22.37Z"/></svg>