<svg xmlns="http://www.w3.org/2000/svg" viewBox="0 0 48 48"><path d="M3.07,3.33a1,1,0,0,0-.95,1v.26A1.21,1.21,0,0,1,3.33,3.33Z"/><path d="M3.07,1.33a3,3,0,0,0-2.95,3v.26A3.21,3.21,0,0,1,3.33,1.33Z"/><path d="M44.67,1.33H3.33A3.21,3.21,0,0,0,.12,4.54V43.46a3.21,3.21,0,0,0,3.21,3.21H44.67a3.21,3.21,0,0,0,3.21-3.21V4.54A3.21,3.21,0,0,0,44.67,1.33Zm-42.55,3a1,1,0,0,1,.95-1h11.7V6A1.75,1.75,0,0,1,13,7.72H2.12ZM45.88,43.46a1.21,1.21,0,0,1-1.21,1.21H3.33a1.21,1.21,0,0,1-1.21-1.21V9.72H45.88Zm0-35.74H16.34A3.81,3.81,0,0,0,16.77,6V3.33h27.9a1.21,1.21,0,0,1,1.21,1.21Z"/><path d="M6.15,18.29v10a1,1,0,0,1-2,0v-10a1,1,0,0,1,2,0Z"/><path d="M6.15,14.25V15a1,1,0,0,1-2,0v-.74a1,1,0,0,1,2,0Z"/><path d="M40.24,19H32a.7.7,0,0,0-.69.7v2.34a.7.7,0,0,0,.69.7h8.26a.7.7,0,0,0,.69-.7V19.73A.7.7,0,0,0,40.24,19Zm-6.15,2.5H32.53V20.28h1.56Zm5.6,0H35.33V20.28h4.36Z"/><path d="M40.24,28.84H32a.69.69,0,0,0-.69.69v2.34a.69.69,0,0,0,.69.7h8.26a.69.69,0,0,0,.69-.7V29.53A.69.69,0,0,0,40.24,28.84Zm-6.15,2.49H32.53V30.08h1.56Zm5.6,0H35.33V30.08h4.36Z"/><path d="M42.2,33.74H32a.69.69,0,0,0-.69.7v2.33a.69.69,0,0,0,.69.7H42.2a.69.69,0,0,0,.69-.7V34.44A.69.69,0,0,0,42.2,33.74Zm-8.11,2.49H32.53V35h1.56Zm7.56,0H35.33V35h6.32Z"/><path d="M43.22,23.94H32a.69.69,0,0,0-.69.69V27a.69.69,0,0,0,.69.7H43.22a.7.7,0,0,0,.7-.7V24.63A.69.69,0,0,0,43.22,23.94Zm-9.13,2.49H32.53V25.18h1.56Zm8.59,0H35.33V25.18h7.35Z"/><path d="M20.49,40.68l-.06.29.18-.29Z"/><path d="M25.9,24.8a1.29,1.29,0,0,0-1.28-1.23H21.57V22.41a4.69,4.69,0,1,0-9.38,0v1.16H10.43A1.3,1.3,0,0,0,9.14,24.8l-1.88,16v.09a1.28,1.28,0,0,0,1.28,1.28H26.37a1.28,1.28,0,0,0,1.28-1.28ZM13.66,22.41a3.22,3.22,0,1,1,6.43,0v1.16H13.66Zm5.39,18.27H8.76l.3-2.48H19.51L19,40.66Zm-9.83-4L10.6,25h1.59v1.87a.74.74,0,1,0,1.47,0V25h6.43v1.87a.74.74,0,1,0,1.48,0V25h.72L19.82,36.72ZM20.43,41l.06-.29L23.28,27.5,23,37l-2.35,3.73Zm1.92-.29,1.31-2.06,1.61,2.06Zm2.08-3.46.31-9.39L26,39.22Z"/><circle cx="11.16" cy="5.52" r="0.86"/><circle cx="8.11" cy="5.52" r="0.86"/><circle cx="5.15" cy="5.52" r="0.86"/></svg>