<svg xmlns="http://www.w3.org/2000/svg" viewBox="0 0 48 48"><defs><style>.a,.b{fill:none;stroke:#000;stroke-miterlimit:10;stroke-width:2px;}.a{stroke-linecap:round;}</style></defs><path class="a" d="M29.45,7A17.15,17.15,0,0,1,46.73,24.31,17.13,17.13,0,0,1,29.36,41"/><path class="a" d="M29.4,13.29a3.25,3.25,0,0,0,1.85-.23,3.46,3.46,0,0,0,1.8-2.29l4.36,2.07a2.93,2.93,0,0,0,0,3.19,3,3,0,0,0,4,.72l1.76,4.37A3.4,3.4,0,0,0,41,23.41a3.33,3.33,0,0,0,2.16,3.65L41.6,31a3,3,0,0,0-4.1,4.36l-4.63,1.89a2.9,2.9,0,0,0-3.33-2.43"/><path class="a" d="M29.54,17.65a6.59,6.59,0,0,1,6.84,6.12,6.6,6.6,0,0,1-6.89,6.71"/><path class="a" d="M2.09,33.08V4.76A1.37,1.37,0,0,1,3.46,3.39H24.51a1.37,1.37,0,0,1,1.37,1.37V43.24a1.37,1.37,0,0,1-1.37,1.37h-21a1.37,1.37,0,0,1-1.37-1.37v-6"/><line class="a" x1="25.61" y1="8.46" x2="5.48" y2="8.46"/><line class="a" x1="2.09" y1="37.28" x2="23" y2="37.28"/><line class="a" x1="10.52" y1="41.14" x2="15.68" y2="41.14"/><rect class="b" x="5.48" y="13.01" width="3.13" height="3.13" rx="0.21"/><rect class="b" x="12.26" y="13.01" width="3.13" height="3.13" rx="0.21"/><rect class="b" x="19.04" y="13.01" width="3.13" height="3.13" rx="0.21"/><rect class="b" x="5.48" y="19.07" width="3.13" height="3.13" rx="0.21"/><rect class="b" x="12.26" y="19.07" width="3.13" height="3.13" rx="0.21"/><rect class="b" x="19.04" y="19.07" width="3.13" height="3.13" rx="0.21"/><rect class="b" x="5.48" y="25.14" width="3.13" height="3.13" rx="0.21"/><rect class="b" x="12.26" y="25.14" width="3.13" height="3.13" rx="0.21"/><rect class="b" x="19.04" y="25.14" width="3.13" height="3.13" rx="0.21"/></svg>