<svg xmlns="http://www.w3.org/2000/svg" viewBox="0 0 48 48"><path d="M47.48,19.84a9.82,9.82,0,0,0-7.78-9.59V2.59A2.08,2.08,0,0,0,37.63.52h-35A2.08,2.08,0,0,0,.52,2.59V45.41a2.08,2.08,0,0,0,2.07,2.07H38.81a2.94,2.94,0,0,0,2.94-2.93V32.72a2.12,2.12,0,0,0-1.86-2.1V29.37A9.79,9.79,0,0,0,47.48,19.84ZM2.52,2.59a.07.07,0,0,1,.07-.07h35a.07.07,0,0,1,.08.07v7.46H2.52Zm32.85,28a2.11,2.11,0,0,0-1.79,2.09V44.55a2.88,2.88,0,0,0,.15.93H2.59a.07.07,0,0,1-.07-.07V12H31.79a9.74,9.74,0,0,0-3.13,4.07A13.56,13.56,0,0,1,27,15.82,21.22,21.22,0,0,1,20.18,13l-.56-.32-.53.34a20.85,20.85,0,0,1-6.75,2.83,20.38,20.38,0,0,1-5.92.46L5.34,16.2,5.45,28A17.45,17.45,0,0,0,19.3,44.38l.36.17.35-.17a17.45,17.45,0,0,0,13.8-15.57,8.43,8.43,0,0,0,1.56.53Zm-26.87-2A13.7,13.7,0,0,0,19.29,41.37l.37.18.35-.18a13.66,13.66,0,0,0,10.8-12.82l0-1.75a8.29,8.29,0,0,0,1.05.9v.22a15.71,15.71,0,0,1-4,9.71,15.5,15.5,0,0,1-8.26,4.78A15.48,15.48,0,0,1,7.44,28l-.09-9.64a23.13,23.13,0,0,0,5.43-.55A23,23,0,0,0,19.66,15a22.93,22.93,0,0,0,6.88,2.78c.5.12,1,.21,1.54.29a10.33,10.33,0,0,0-.16,1.26A15.07,15.07,0,0,1,25.33,19a16,16,0,0,1-5.15-2.16l-.55-.32-.54.34A15.7,15.7,0,0,1,14,19a15.43,15.43,0,0,1-4.49.34l-1.07-.06Zm20.31-.1A11.65,11.65,0,0,1,19.66,39.4,11.65,11.65,0,0,1,10.5,28.53l-.07-7.18a18.38,18.38,0,0,0,4-.43,17.72,17.72,0,0,0,5.25-2.1,17.61,17.61,0,0,0,5.24,2.1,18.38,18.38,0,0,0,3.13.41A9.47,9.47,0,0,0,28.85,24ZM39.75,44.55a.94.94,0,0,1-.94.93h-2.3a.94.94,0,0,1-.94-.93V35.72h4.18Zm0-10.42H35.57V32.72a.12.12,0,0,1,.12-.12h3.94a.12.12,0,0,1,.12.12ZM37,30.6v-1c.24,0,.49,0,.74,0l.6,0v1Zm.74-3a7.8,7.8,0,1,1,7.78-7.79A7.79,7.79,0,0,1,37.7,27.63Z"/><path d="M5,20v0H5Z"/><path d="M5,20h0v0Z"/><polygon points="25.47 24.83 17.61 34.57 13.89 30.61 15.35 29.25 17.49 31.53 23.91 23.58 25.47 24.83"/><rect x="33.78" y="19.04" width="1.58" height="1.59"/><rect x="36.89" y="19.04" width="1.59" height="1.59"/><rect x="39.76" y="19.04" width="1.59" height="1.59"/><path d="M6.92,4.13A2.16,2.16,0,1,0,9.08,6.29,2.16,2.16,0,0,0,6.92,4.13Zm0,3a.83.83,0,0,1,0-1.66.83.83,0,0,1,0,1.66Z"/><path d="M13.67,4.13a2.16,2.16,0,1,0,2.16,2.16A2.16,2.16,0,0,0,13.67,4.13Zm0,3a.83.83,0,1,1,.83-.83A.83.83,0,0,1,13.67,7.12Z"/><path d="M19.85,4.13A2.16,2.16,0,1,0,22,6.29,2.16,2.16,0,0,0,19.85,4.13Zm0,3a.83.83,0,1,1,.83-.83A.83.83,0,0,1,19.85,7.12Z"/></svg>