<svg xmlns="http://www.w3.org/2000/svg" viewBox="0 0 48 48"><path d="M44.93,20.51A21.29,21.29,0,0,0,27.46,3.07V.24h-7V3.09A21.3,21.3,0,0,0,3.07,20.51H.26v7h2.8A21.35,21.35,0,0,0,15,43.25H9.24a1.89,1.89,0,1,0-1.61,2.89,1.88,1.88,0,0,0,1.61-.89h11.2v2.51h7V45.25h11a1.86,1.86,0,0,0,1.6.89,1.89,1.89,0,1,0-1.6-2.89H33a21.27,21.27,0,0,0,12-15.72h2.8v-7ZM22.44,2.24h3v3h-3ZM2.26,25.53v-3h3v3Zm23.2,20.23h-3v-3h3Zm2-2.82v-2.2h-7v2.19A19.36,19.36,0,0,1,5.09,27.53H7.28v-7H5.09A19.32,19.32,0,0,1,20.44,5.13V7.26h7V5.1A19.31,19.31,0,0,1,42.91,20.51H40.72v7h2.19A19.28,19.28,0,0,1,27.46,42.94ZM45.74,25.53h-3v-3h3Z"/><path d="M30,15.13V8.71H17.87v6.62l-3.06,7.84,9,17.57h.38L33,23ZM19.87,10.71H28V13.4H19.87ZM23.93,23a1,1,0,1,1,1-1A1,1,0,0,1,23.93,23Zm.94,1.85a3,3,0,1,0-2,0L23,34.69,17,23.06l2.8-7.17h8.34l2.71,7L25,34.7Z"/></svg>