<svg xmlns="http://www.w3.org/2000/svg" viewBox="0 0 48 48"><path d="M35,32.15v1.5h7.41v-1.5Zm-18.47,0v1.5H32.67v-1.5Zm6.47-15v1l.48-.4Zm0,8.35v1l.48-.57Zm12.46-7.78.48.4v-1Zm0,8.18.48.57v-1Z"/><path d="M46,.37H2A1.67,1.67,0,0,0,.37,2V46A1.67,1.67,0,0,0,2,47.63H46A1.67,1.67,0,0,0,47.63,46V2A1.67,1.67,0,0,0,46,.37Zm-3.79,3a1.29,1.29,0,1,1-1.29,1.29A1.29,1.29,0,0,1,42.17,3.33Zm-4.75,0a1.29,1.29,0,1,1-1.29,1.29A1.29,1.29,0,0,1,37.42,3.33Zm-4.74,0a1.29,1.29,0,1,1-1.3,1.29A1.29,1.29,0,0,1,32.68,3.33ZM11.56,45.63H2.37V8.78h9.19Zm34.07,0H13.56V8.78H45.63Z"/><rect x="5.32" y="13.86" width="2.78" height="2.8"/><rect x="5.32" y="19.89" width="2.78" height="2.8"/><rect x="5.32" y="25.92" width="2.78" height="2.8"/><rect x="5.32" y="31.95" width="2.78" height="2.8"/><rect x="5.32" y="37.98" width="2.78" height="2.8"/><polygon points="22.97 25.49 23.45 25.89 22.97 26.46 22.49 27.04 16.19 21.76 22.49 16.56 22.97 17.13 22.97 17.14 23.45 17.71 22.97 18.11 18.53 21.77 22.97 25.49"/><polygon points="42.69 21.76 36.39 27.04 35.91 26.46 35.43 25.89 35.91 25.49 40.34 21.77 35.91 18.11 35.43 17.71 35.91 17.13 36.38 16.56 42.69 21.76"/><rect x="22.97" y="21.05" width="12.94" height="1.5"/><rect x="16.5" y="32.15" width="16.17" height="1.5"/><rect x="25.07" y="35.66" width="17.1" height="1.5"/><rect x="16.5" y="35.66" width="6.47" height="1.5"/><rect x="34.97" y="32.15" width="7.41" height="1.5"/></svg>