<svg width="248" height="118" viewBox="0 0 248 118" fill="none" xmlns="http://www.w3.org/2000/svg">
<path d="M25 104H0L7.09876 89.4683L0 75H18.9506V93.7198H25V104Z" fill="#2AD2FF"/>
<path d="M213 104H248L240.685 89.4681L248 75H228.577L228.514 90.7429L213 104Z" fill="#2AD2FF"/>
<path d="M27 118L27 0H221V118H27Z" fill="#0460B5"/>
<path d="M226 65H21V92H226V65Z" fill="#2AD2FF"/>
<path d="M50.7414 72.7219C51.7241 73.208 52.5 73.9858 53.1207 74.8609C53.6897 75.8331 54 76.854 54 77.9721C54 79.0901 53.6897 80.111 53.1207 81.0833C52.5517 82.0069 51.7241 82.7361 50.6897 83.2222C49.6552 83.7083 48.4655 84 47.3276 84H42V72.0413H47.2759C48.5172 71.8955 49.7069 72.1386 50.7414 72.7219ZM49.5 81.3749C50.069 81.0346 50.5862 80.5485 50.9483 80.0138C51.6724 78.7012 51.6724 77.1943 50.9483 75.9303C50.5862 75.2984 50.069 74.8123 49.5 74.472C48.8276 74.1317 48.1034 73.9372 47.3793 73.9858H44.4828V82.0069H47.431C48.1034 81.9097 48.8276 81.7152 49.5 81.3749Z" fill="white"/>
<path d="M56 71H65.6791V73.1579H58.6203V76.3684H65.0374V78.5263H58.6203V81.8421H66V84H56V71Z" fill="white"/>
<path d="M74.0854 73.4861C73.5327 73.2789 72.9296 73.1753 72.2764 73.1753C71.7739 73.1753 71.3216 73.2271 70.9196 73.4861C70.6181 73.6932 70.4171 74.004 70.4171 74.3665C70.4171 74.7291 70.5678 75.0398 70.7688 75.247C70.9698 75.4542 71.3216 75.7132 71.6231 75.8167C72.0754 76.0239 72.5779 76.1793 73.0301 76.3347C73.7337 76.5418 74.4372 76.8008 75.0905 77.0598C75.6432 77.2669 76.0955 77.7331 76.4472 78.1474C76.8995 78.7171 77 79.3904 77 80.1155C77 80.8406 76.799 81.5657 76.3467 82.1873C75.8945 82.757 75.3417 83.2231 74.6884 83.5339C73.8844 83.8446 73.1307 84 72.2764 84C71.2714 84 70.3668 83.7928 69.4121 83.4303C68.5578 83.0677 67.7035 82.6016 67 81.9801L68.005 79.9084C68.6583 80.4781 69.3618 80.9442 70.1658 81.3068C70.8693 81.6175 71.5729 81.8247 72.3266 81.8247C72.8794 81.8247 73.3819 81.7729 73.8844 81.4622C74.4372 81.0996 74.5879 80.2709 74.2362 79.7012C74.1859 79.6494 74.1859 79.5458 74.0854 79.5458C73.7839 79.3386 73.5327 79.0797 73.2312 78.9761C72.8794 78.8207 72.3769 78.6653 71.8241 78.4582C71.1206 78.251 70.4673 77.992 69.7638 77.7331C69.2613 77.5259 68.7588 77.0598 68.407 76.6454C67.9548 76.0757 67.8543 75.4024 67.8543 74.7291C67.8543 74.0558 68.0553 73.3307 68.407 72.8127C68.8593 72.243 69.4121 71.7769 70.0653 71.4661C70.8693 71.1554 71.6231 71 72.4774 71C73.2814 71 74.0352 71.1554 74.8392 71.3625C75.5427 71.5697 76.2462 71.9323 76.8995 72.3466L75.8945 74.4701C75.4422 74.004 74.7889 73.6932 74.0854 73.4861Z" fill="white"/>
<path d="M79 71H82V84H79V71Z" fill="white"/>
<path d="M93.6943 77.5765H95.8428V82.3686C95.1092 82.8784 94.2707 83.3373 93.4323 83.5412C92.5415 83.8471 91.6507 84 90.7598 84C89.5546 84 88.3493 83.6941 87.3537 83.1333C86.3057 82.5726 85.4672 81.7569 84.8908 80.7882C84.3144 79.7686 84 78.5961 84 77.4745C84 76.302 84.3144 75.2314 84.8908 74.2118C85.4672 73.2431 86.3581 72.4784 87.4061 71.8667C88.5066 71.3059 89.7118 71 90.917 71C91.9127 71 92.8035 71.1529 93.6943 71.5098C94.5328 71.8157 95.3188 72.2235 96 72.8353L94.5852 74.5686C94.0611 74.1098 93.4847 73.7529 92.8559 73.498C92.2795 73.2941 91.5983 73.1412 90.917 73.1412C90.0786 73.1412 89.345 73.3451 88.6638 73.702C86.5677 74.8745 85.8341 77.4745 87.0393 79.5647C87.8777 80.8902 89.2926 81.7569 90.917 81.7569C91.3886 81.7569 91.9127 81.7059 92.3319 81.5529C92.8559 81.4 93.3275 81.1961 93.7467 80.9922L93.6943 77.5765Z" fill="white"/>
<path d="M106.668 71H109V84H106.77L100.332 75.0691V84H98V71H100.23L106.668 79.9309V71Z" fill="white"/>
<path d="M120.223 84L117.927 80.1437H114.456V84H112V71.005H117.447C118.888 70.9521 120.277 71.3219 121.398 72.1143C122.413 72.9595 122.84 74.1216 122.786 75.4423C122.786 76.3403 122.573 77.2383 122.092 78.0836C121.612 78.8231 120.971 79.3514 120.117 79.6683L123 83.9472L120.223 84ZM114.456 77.9779H117.447C118.194 78.0307 118.942 77.8194 119.636 77.3968C120.17 76.9214 120.49 76.2875 120.383 75.6008C120.383 74.914 120.17 74.3329 119.636 73.8575C119.049 73.3821 118.248 73.2764 117.447 73.2764H114.456V77.9779Z" fill="white"/>
<path d="M128.243 80.8924C128.808 81.4622 129.681 81.7729 130.503 81.7729C131.325 81.8247 132.199 81.4622 132.764 80.8924C133.329 80.2191 133.637 79.4422 133.586 78.51V71H136V78.51C136 79.5458 135.795 80.4781 135.332 81.4104C134.87 82.239 134.253 82.8606 133.431 83.3267C132.558 83.7928 131.531 84 130.503 84C129.476 84 128.448 83.7928 127.575 83.3267C126.753 82.8606 126.137 82.239 125.674 81.4104C125.212 80.5299 124.955 79.494 125.006 78.51V71H127.421V78.51C127.318 79.3386 127.626 80.2191 128.243 80.8924Z" fill="white"/>
<path d="M145.085 73.5692C144.533 73.3636 143.93 73.2609 143.276 73.2609C142.774 73.2609 142.322 73.3123 141.92 73.5692C141.618 73.7747 141.417 74.083 141.417 74.4427C141.417 74.8024 141.568 75.1107 141.769 75.3162C141.97 75.5217 142.322 75.7787 142.623 75.8814C143.075 76.087 143.578 76.2411 144.03 76.3953C144.734 76.6008 145.437 76.8577 146.09 77.1146C146.643 77.3202 147.095 77.7826 147.447 78.1937C147.9 78.7589 148 79.4269 148 80.1462C148 80.8656 147.799 81.585 147.347 82.2016C146.894 82.7668 146.342 83.2293 145.688 83.5376C144.884 83.8459 144.131 84 143.276 84C142.271 84 141.367 83.7945 140.412 83.4348C139.558 83.0751 138.704 82.6127 138 81.996L139.005 79.9407C139.658 80.5059 140.362 80.9684 141.166 81.3281C141.869 81.6364 142.573 81.8419 143.327 81.8419C143.879 81.8419 144.382 81.7905 144.884 81.4822C145.437 81.0198 145.538 80.249 145.085 79.6324C145.035 79.581 145.035 79.581 144.935 79.4783C144.633 79.2727 144.382 79.0158 144.08 78.913C143.729 78.7589 143.226 78.6047 142.673 78.3992C141.97 78.1937 141.317 77.9368 140.613 77.6798C140.111 77.4743 139.608 77.0119 139.256 76.6008C138.804 76.0356 138.704 75.3676 138.704 74.6996C138.704 74.0316 138.905 73.3123 139.256 72.7984C139.709 72.2332 140.261 71.7707 140.915 71.4624C141.719 71.1541 142.472 71 143.327 71C144.131 71 144.884 71.1541 145.688 71.3597C146.392 71.5652 147.095 71.9249 147.749 72.336L146.794 74.3913C146.442 74.083 145.789 73.7747 145.085 73.5692Z" fill="white"/>
<path d="M150 71H152.394V76.5488H158.606V71H161V84H158.606V78.8211H152.394V84H150V71Z" fill="white"/>
<path d="M171.96 76.472C171.244 76.472 170.58 76.7616 170.068 77.2441C169.557 77.775 169.352 78.4988 169.352 79.1744C169.301 79.9465 169.557 80.6703 170.068 81.2494C170.58 81.732 171.244 82.0215 171.96 82.0215C172.983 82.0698 173.903 81.6837 174.568 81.0081L176 82.1663C175.54 82.7936 174.977 83.1796 174.313 83.5174C173.494 83.8552 172.727 84 171.858 84C170.989 84 170.119 83.807 169.301 83.4692C168.585 83.1314 167.972 82.5523 167.614 81.8767C166.795 80.3808 166.795 78.6436 167.614 77.1476C167.972 76.472 168.585 75.893 169.301 75.5552C170.119 75.1209 170.989 74.9278 171.858 75.0244C172.676 75.0244 173.443 75.1691 174.21 75.4587C174.875 75.7482 175.438 76.1342 175.898 76.7133L174.466 77.968C173.955 76.9546 172.983 76.472 171.96 76.472Z" fill="white"/>
<path d="M184.65 74.6087C185.35 74.979 186 75.6139 186.35 76.3546C186.8 77.2012 187 78.1006 187 79C187 79.8994 186.8 80.9047 186.35 81.6454C185.9 82.3861 185.35 83.021 184.65 83.3913C183.85 83.8675 182.95 84.0791 182.1 83.9733C181.15 83.9733 180.3 83.7617 179.45 83.3913C178.75 83.021 178.1 82.3861 177.65 81.6454C177.2 80.7989 177 79.8994 177 79C177 78.1006 177.2 77.2012 177.65 76.3546C178.1 75.6139 178.65 74.979 179.45 74.6087C180.25 74.1325 181.15 73.9209 182.1 74.0267C182.9 73.9738 183.85 74.1854 184.65 74.6087ZM180.05 76.8837C179.05 78.1535 179.05 79.9523 180.05 81.275C180.55 81.8041 181.25 82.1744 181.95 82.1215C182.65 82.1215 183.35 81.8041 183.85 81.275C184.85 80.0052 184.85 78.2064 183.85 76.8837C183.35 76.3546 182.65 76.0372 181.95 76.0372C181.3 76.0372 180.55 76.3546 180.05 76.8837Z" fill="white"/>
<path d="M204.04 75.2325C204.693 75.9503 205.046 76.9757 204.995 77.9499V84H202.681V78.6677C202.732 78.1037 202.531 77.4372 202.128 76.9757C201.675 76.5143 201.172 76.3092 200.619 76.4117C199.965 76.4117 199.311 76.7194 198.909 77.2321C198.456 77.7961 198.255 78.4626 198.255 79.1804V83.9487H195.841V78.6164C195.891 78.0524 195.69 77.3859 195.287 76.9244C194.835 76.463 194.332 76.3605 193.778 76.3605C193.125 76.3605 192.42 76.6681 191.968 77.1808C191.515 77.7448 191.314 78.4113 191.314 79.1291V83.8975H189V74.2583H191.364V76.0016C192.521 74.1045 194.935 73.5918 196.796 74.6685C197.35 75.1299 197.802 75.6939 197.953 76.3605C198.507 74.9248 199.965 73.9507 201.474 74.0019C202.531 74.0532 203.386 74.4634 204.04 75.2325Z" fill="white"/>
<path d="M165.727 82.4C165.909 82.6667 166 83.0667 166 83.4667C166 83.8667 165.955 84.2 165.727 84.5333C165.545 84.8 165.273 85 165 85C164.727 85 164.5 84.8 164.273 84.5333C164.091 84.2667 164 83.8667 164 83.4667C164 83.0667 164.045 82.7333 164.273 82.4C164.455 82.1333 164.727 82 165 82C165.273 82 165.545 82.2 165.727 82.4Z" fill="white"/>
<path d="M103 104H40V105H103V104Z" fill="white"/>
<path d="M208 104H145V105H208V104Z" fill="white"/>
<path d="M116.716 106.878V105.354H114.157C115.898 104.176 116.663 103.292 116.663 102.245C116.663 100.894 115.478 100 113.832 100C112.856 100 111.745 100.335 111 101.128L111.996 102.286C112.5 101.829 113.087 101.544 113.863 101.544C114.377 101.544 114.828 101.788 114.828 102.245C114.828 102.926 114.262 103.393 111.231 105.517V106.878H116.716Z" fill="white"/>
<path d="M120.411 107C122.456 107 123.411 105.283 123.411 103.495C123.411 101.707 122.456 100 120.411 100C118.366 100 117.412 101.707 117.412 103.495C117.412 105.283 118.366 107 120.411 107ZM120.411 105.456C119.572 105.456 119.237 104.694 119.237 103.495C119.237 102.296 119.572 101.544 120.411 101.544C121.25 101.544 121.586 102.296 121.586 103.495C121.586 104.694 121.25 105.456 120.411 105.456Z" fill="white"/>
<path d="M129.63 106.878V105.354H127.071C128.812 104.176 129.577 103.292 129.577 102.245C129.577 100.894 128.392 100 126.746 100C125.771 100 124.659 100.335 123.914 101.128L124.911 102.286C125.414 101.829 126.001 101.544 126.777 101.544C127.291 101.544 127.742 101.788 127.742 102.245C127.742 102.926 127.176 103.393 124.145 105.517V106.878H129.63Z" fill="white"/>
<path d="M136 106.878V105.354H133.441C135.182 104.176 135.948 103.292 135.948 102.245C135.948 100.894 134.763 100 133.116 100C132.141 100 131.029 100.335 130.284 101.128L131.281 102.286C131.784 101.829 132.371 101.544 133.147 101.544C133.661 101.544 134.112 101.788 134.112 102.245C134.112 102.926 133.546 103.393 130.515 105.517V106.878H136Z" fill="white"/>
<path d="M96.1293 27.7739L91.1967 15.2072H86.9322L81.9996 27.7739H85.8317L86.4802 25.9652H91.6487L92.2972 27.7739H96.1293ZM90.725 23.1391H87.4039L89.0743 18.4101L90.725 23.1391Z" fill="white"/>
<path d="M102.89 28C106.054 28 107.764 26.229 108.609 24.6275L105.7 23.3087C105.268 24.3072 104.148 25.1362 102.89 25.1362C100.748 25.1362 99.235 23.5536 99.235 21.5C99.235 19.4275 100.748 17.8638 102.89 17.8638C104.148 17.8638 105.268 18.6928 105.7 19.6913L108.609 18.3536C107.764 16.7145 106.054 15 102.89 15C98.8616 15 95.7959 17.6188 95.7959 21.5C95.7959 25.3623 98.8616 28 102.89 28Z" fill="white"/>
<path d="M116.497 28C119.661 28 121.37 26.229 122.215 24.6275L119.307 23.3087C118.875 24.3072 117.754 25.1362 116.497 25.1362C114.355 25.1362 112.842 23.5536 112.842 21.5C112.842 19.4275 114.355 17.8638 116.497 17.8638C117.754 17.8638 118.875 18.6928 119.307 19.6913L122.215 18.3536C121.37 16.7145 119.661 15 116.497 15C112.468 15 109.402 17.6188 109.402 21.5C109.402 25.3623 112.468 28 116.497 28Z" fill="white"/>
<path d="M134.859 27.7739L132.186 23.158C133.424 22.7435 134.8 21.5754 134.8 19.3899C134.8 17.0536 133.149 15.2072 130.241 15.2072H123.677V27.7739H127.057V23.5536H128.787L130.988 27.7739H134.859ZM129.73 20.7275H127.057V18.0333H129.73C130.634 18.0333 131.361 18.5043 131.361 19.371C131.361 20.2565 130.634 20.7275 129.73 20.7275Z" fill="white"/>
<path d="M146.279 27.7739V24.9478H140.05V22.8188H146.142V19.9928H140.05V18.0333H146.279V15.2072H136.67V27.7739H146.279Z" fill="white"/>
<path d="M153.764 27.7739C157.871 27.7739 160.839 25.3812 160.839 21.4812C160.839 17.5812 157.871 15.2072 153.744 15.2072H148.242V27.7739H153.764ZM153.744 24.9478H151.622V18.0333H153.764C156.162 18.0333 157.38 19.5406 157.38 21.4812C157.38 23.3464 156.044 24.9478 153.744 24.9478Z" fill="white"/>
<path d="M165.9 27.7739V15.2072H162.52V27.7739H165.9Z" fill="white"/>
<path d="M174.567 27.7739V18.0333H178.222V15.2072H167.512V18.0333H171.186V27.7739H174.567Z" fill="white"/>
<path d="M189.44 27.7739V24.9478H183.211V22.8188H189.303V19.9928H183.211V18.0333H189.44V15.2072H179.831V27.7739H189.44Z" fill="white"/>
<path d="M196.925 27.7739C201.032 27.7739 204 25.3812 204 21.4812C204 17.5812 201.032 15.2072 196.905 15.2072H191.403V27.7739H196.925ZM196.905 24.9478H194.783V18.0333H196.925C199.323 18.0333 200.541 19.5406 200.541 21.4812C200.541 23.3464 199.205 24.9478 196.905 24.9478Z" fill="white"/>
<path d="M102.611 53.6348L95.0667 33.3348H88.5442L80.9996 53.6348H86.8609L87.8528 50.713H95.7581L96.75 53.6348H102.611ZM94.3453 46.1478H89.2656L91.8205 38.5087L94.3453 46.1478Z" fill="white"/>
<path d="M112.952 54C116.74 54 119.685 52.4478 121.819 50.0435V41.9783H112.141V46.5739H116.649V48.1565C115.928 48.7652 114.425 49.3739 112.952 49.3739C109.676 49.3739 107.362 46.8174 107.362 43.5C107.362 40.1522 109.676 37.6261 112.952 37.6261C114.906 37.6261 116.439 38.8739 117.19 40.213L121.519 37.9304C120.136 35.4043 117.431 33 112.952 33C106.971 33 102.101 37.0478 102.101 43.5C102.101 49.9522 106.971 54 112.952 54Z" fill="white"/>
<path d="M139.543 53.6348V49.0696H130.015V45.6304H139.333V41.0652H130.015V37.9H139.543V33.3348H124.845V53.6348H139.543Z" fill="white"/>
<path d="M161.181 53.6348V33.3348H155.981V44.5043L147.865 33.3348H142.545V53.6348H147.715V41.887L156.191 53.6348H161.181Z" fill="white"/>
<path d="M174.624 54C179.463 54 182.078 51.1391 183.371 48.5522L178.922 46.4217C178.261 48.0348 176.548 49.3739 174.624 49.3739C171.348 49.3739 169.033 46.8174 169.033 43.5C169.033 40.1522 171.348 37.6261 174.624 37.6261C176.548 37.6261 178.261 38.9652 178.922 40.5783L183.371 38.4174C182.078 35.7696 179.463 33 174.624 33C168.462 33 163.773 37.2304 163.773 43.5C163.773 49.7391 168.462 54 174.624 54Z" fill="white"/>
<path d="M195.425 53.6348V45.4478L203 33.3348H197.138L192.84 40.8217L188.482 33.3348H182.65L190.255 45.4478V53.6348H195.425Z" fill="white"/>
<path d="M53 37C52.9207 37 52.9207 36.9224 53 37L52.6037 36.7672L52.5244 36.6897L43.1707 30.1724C43.1707 30.1724 43.0915 30.1724 43.0915 30.0948L42.9329 29.9397L42.8537 29.8621H42.6951L40 28L45.311 28.7759C45.5488 28.7759 45.628 28.8534 45.8659 28.931C45.9451 28.931 46.1037 29.0086 46.1037 29.0086C46.3415 29.0862 46.4207 29.1638 46.5793 29.2414C46.7378 29.319 46.8171 29.3966 46.9756 29.4741C47.0549 29.5517 47.2134 29.6293 47.2134 29.7069C47.2927 29.7845 47.372 29.7845 47.4512 29.8621C47.6098 29.9397 47.689 30.0172 47.689 30.0948C47.9268 30.3276 48.0854 30.5603 48.3232 30.7155L52.5244 36.5345L52.6037 36.6121L53 37Z" fill="#2AD2FF"/>
<path d="M52.4238 45L52.0427 44.4138L51.9665 44.3405L40 28L42.5915 29.7586L43.0488 30.0517L52.0427 36.2069H52.1189L52.4238 36.4267C52.4238 36.4267 52.5 36.4267 52.5 36.5L52.8811 36.2069L65 28L52.8049 44.4138L52.7287 44.4871L52.4238 45Z" fill="url(#paint0_linear_101_920)"/>
<path d="M52.5795 34L52.1818 33.375L52.1023 33.2969L49 29.0781L52.1023 29.7031H52.1818L52.5795 29.7813L52.9773 29.7031L56 29L52.9773 33.375V33.4531L52.5795 34Z" fill="#2AD2FF"/>
<path d="M65 28L61.3855 28.5385L60.012 28.7692C58.9277 28.9231 57.9157 29.5385 57.2651 30.5385L53.4337 36.3846L53.3614 36.4615L53 37L53.4337 36.5385L53.506 36.4615L53 37L62.759 29.6154L65 28Z" fill="#2AD2FF"/>
<path d="M55 16.0329C55 19.338 48.7959 21.0657 48.7959 24.5962C48.7143 25.4225 48.9592 26.2488 49.3673 27C49.3673 27 47 24.8967 47 22.6432C47 20.3897 49.2857 17.0094 49.2857 17.0094C49.2857 18.5117 49.9388 18.9624 50.5918 19.0376H50.6735C51.4082 19.0376 51.8163 18.5117 51.8163 17.7606C51.8163 17.0094 50.9184 16.2582 50.9184 14.7559C50.9184 13.3286 52.8776 11 52.8776 11C54.2653 12.5023 55 14.23 55 16.0329Z" fill="#2AF4FF"/>
<path d="M53.0987 28C51.328 28 50 26.5298 50 24.75V24.6726C50 20.7262 55.2382 20.3393 55.2382 15C55.3858 15.2321 56.7875 17.244 56.7875 19.4107C56.7875 22.119 54.3529 22.8155 54.3529 24.131C54.3529 24.6726 54.5742 25.0595 55.312 25.0595C55.3858 25.0595 55.4595 25.0595 55.5333 24.9821C56.9351 24.3631 57.8942 22.9702 57.968 21.3452C57.968 21.4226 58.7058 28 53.0987 28Z" fill="#2AF4FF"/>
<path d="M55.4921 24.7774C55.5714 24.7774 55.6508 24.7774 55.7302 24.7022C54.9365 24.9278 52 25.6047 52 23.6493C52 21.2425 56.3651 20.716 56.3651 18.6853C56.3651 17.4067 56.0476 16.1282 55.3333 15C55.4921 15.2256 57 17.1811 57 19.287C57 21.9194 54.381 22.5963 54.381 23.8749C54.4603 24.4014 54.7778 24.7774 55.4921 24.7774Z" fill="#2AD2FF"/>
<path d="M53 17.3251C53 19.1854 51.1176 19.0366 51 18.9622H51.1765C51.7059 18.9622 52 18.4413 52 17.6972C52 16.953 51.3529 16.2089 51.3529 14.7207C51.3529 13.3068 52.7647 11 52.7647 11C52.2941 11.9674 52.0588 13.0092 52 14.0509C52 15.7624 53 15.9113 53 17.3251Z" fill="#2AD2FF"/>
<path d="M51.5493 52.7059L50 51.3824H51.9014L52.5352 49L53.0986 51.3824H55L53.4507 52.7059L54.0141 55L52.4648 53.5882L50.8451 55L51.5493 52.7059Z" fill="#2AF4FF"/>
<path d="M60.5493 52.7059L59 51.3824H60.9014L61.5352 49L62.0986 51.3824H64L62.4507 52.7059L63.0141 55L61.4648 53.5882L59.8451 55L60.5493 52.7059Z" fill="#2AF4FF"/>
<path d="M42.8592 52.7059L41 51.3824H43.2817L44.0423 49L44.7183 51.3824H47L45.1408 52.7059L45.8169 55L43.9577 53.5882L42.0986 55L42.8592 52.7059Z" fill="#2AF4FF"/>
<defs>
<linearGradient id="paint0_linear_101_920" x1="52.5" y1="45.0501" x2="52.5" y2="36.0562" gradientUnits="userSpaceOnUse">
<stop offset="0.7303" stop-color="#2AF4FF"/>
<stop offset="0.8837" stop-color="#2AF4FF"/>
</linearGradient>
</defs>
</svg>
