<?xml version="1.0" encoding="utf-8"?>
<!-- Generator: Adobe Illustrator 25.3.0, SVG Export Plug-In . SVG Version: 6.00 Build 0)  -->
<svg version="1.1" id="Layer_1" xmlns="http://www.w3.org/2000/svg" xmlns:xlink="http://www.w3.org/1999/xlink" x="0px" y="0px"
	 viewBox="0 0 66 68.1" style="enable-background:new 0 0 66 68.1;" xml:space="preserve">
<style type="text/css">
	.st0{fill:#1F69F9;}
</style>
<path class="st0" d="M66.3,41.5c0,0.4,0,0.8,0,1.2c0,0.1,0,0.2-0.1,0.3c-0.1,0.6-0.2,1.1-0.3,1.7c-0.8,2.7-2.6,4.4-4.9,5.7
	c-0.1,0-0.1,0-0.2,0.1c-2,0.5-4.1,0.9-6.1,1.5c-5.3,1.5-10.5,3.3-15.5,5.8c-2.8,1.4-5.5,3-8,5c-1.4,1.2-3,2.3-4.6,3.1
	c-2.5,1.3-5.2,2.1-8,2.2c-2.9,0.1-5.5-0.7-7.9-2.3c-1.1-0.7-2.1-1.5-2.9-2.6c-1.9-2.6-3.5-5.5-4.7-8.5c-1.6-3.6-2.6-7.4-2.9-11.4
	c-0.2-2.4,0-4.8,0.4-7.2c0.6-3.3,1.8-6.4,3.5-9.2c3-5,7-8.9,11.7-12.1c4.9-3.3,10.3-5.1,16.2-5.2c2.6,0,5.2,0.3,7.8,1
	c3.8,1,7.2,2.8,10.4,5.1c1,0.7,2,1.4,2.9,2.3c2,2,3.8,4.2,5.5,6.5c2.2,2.9,4.2,6,5.7,9.4c0.9,1.9,1.6,3.9,1.9,6.1
	C66.2,40.4,66.2,41,66.3,41.5z"/>
<g>
	<g>
		<path d="M34.1,5.8c-1.6,0-2.9-1.3-2.9-2.9S32.5,0,34.1,0S37,1.3,37,2.9S35.7,5.8,34.1,5.8z M34.1,1.8c-0.6,0-1.1,0.5-1.1,1.1
			S33.5,4,34.1,4s1.1-0.5,1.1-1.1S34.7,1.8,34.1,1.8z"/>
		<path d="M38.1,12.9c-0.5,0-0.9-0.4-0.9-0.9c0-1.7-1.4-3.1-3.1-3.1c-1.7,0-3.1,1.4-3.1,3.1c0,0.5-0.4,0.9-0.9,0.9s-0.9-0.4-0.9-0.9
			c0-2.7,2.2-4.9,4.9-4.9S39,9.3,39,12C39,12.5,38.6,12.9,38.1,12.9z"/>
		<path d="M42.5,15.9c-1.6,0-2.9-1.3-2.9-2.9s1.3-2.9,2.9-2.9c1.6,0,2.9,1.3,2.9,2.9S44.1,15.9,42.5,15.9z M42.5,11.9
			c-0.6,0-1.1,0.5-1.1,1.1s0.5,1.1,1.1,1.1s1.1-0.5,1.1-1.1C43.7,12.4,43.2,11.9,42.5,11.9z"/>
		<path d="M46.6,22.9c-0.5,0-0.9-0.4-0.9-0.9c0-1.7-1.4-3.1-3.1-3.1s-3.1,1.4-3.1,3.1c0,0.5-0.4,0.9-0.9,0.9s-0.9-0.4-0.9-0.9
			c0-2.7,2.2-4.9,4.9-4.9s4.9,2.2,4.9,4.9C47.5,22.5,47.1,22.9,46.6,22.9z"/>
		<path d="M25.6,15.9c-1.6,0-2.9-1.3-2.9-2.9s1.3-2.9,2.9-2.9s2.9,1.3,2.9,2.9l0,0C28.5,14.6,27.2,15.9,25.6,15.9z M25.6,11.9
			c-0.6,0-1.1,0.5-1.1,1.1s0.5,1.1,1.1,1.1s1.1-0.5,1.1-1.1l0,0C26.7,12.4,26.2,11.9,25.6,11.9z"/>
		<path d="M29.6,22.9c-0.5,0-0.9-0.4-0.9-0.9c0-1.7-1.4-3.1-3.1-3.1s-3.1,1.4-3.1,3.1c0,0.5-0.4,0.9-0.9,0.9s-0.9-0.4-0.9-0.9
			c0-2.7,2.2-4.9,4.9-4.9s4.9,2.2,4.9,4.9C30.5,22.5,30.1,22.9,29.6,22.9z"/>
	</g>
	<path d="M18.4,30.2c0.8-0.2,1.4-0.6,1.9-1.1c1.2-1.1,2.5-2,4.1-2.5c2.3-0.7,4.6-0.5,6.8,0.6c1.2,0.6,2.4,0.9,3.8,0.8
		c1.1,0,2.2,0.2,3.2-0.1c1-0.2,1.9-0.9,2.8-1.4c1.7-0.9,3.3-0.9,4.8,0.2c0.1,0.1,0.3,0.1,0.5,0c1.5-0.7,2.7-0.5,3.9,0.6
		c0.3,0.2,0.4,0.1,0.6,0c1.7-0.8,3.7-0.3,4.7,1.3c0.3,0.5,0.3,0.8-0.2,1.1c-4.5,3.1-9,6.2-13.5,9.3c-1.6,1.1-3.6,1.4-5.6,1.1
		c-2.4-0.3-4.9-0.8-7.3-1.3c-0.6-0.1-1.2-0.2-1.7-0.3c-0.7-0.1-1.3,0-1.8,0.4c-1.1,0.7-2.2,1.4-3.4,2.1c-0.3,0.2-0.3,0.3-0.2,0.6
		c0.4,1.2,0.7,2.3,1.1,3.5c0.2,0.7,0,1-0.7,1c-3,0-6.1,0-9.1,0c-0.6,0-0.8-0.1-0.9-0.8c-0.5-3.9-0.9-7.8-1.4-11.8
		c-0.2-1.7-0.4-3.5-0.6-5.2c-0.1-0.7,0.1-0.9,0.8-0.9c2,0,4,0,5.9,0c0.5,0,0.7,0.2,0.9,0.6C17.9,28.7,18.2,29.4,18.4,30.2z
		 M54.4,28.8c-0.9-0.9-2-1.1-3.1-0.5c-2.3,1.2-4.6,2.5-6.8,3.7c-0.1,0.1-0.3,0.2-0.3,0.3C44,32.9,43.9,33,43.3,33
		c-1-0.1-2-0.1-3-0.1c-1.7,0-3.4,0.1-5,0.1c-0.5,0-0.8-0.1-0.8-0.5c0-0.5,0.3-0.6,0.7-0.7c1.3-0.1,2.7-0.1,4-0.1
		c1.2,0,2.5,0.1,3.7,0.1c0-0.2,0-0.3-0.1-0.4c-0.4-1.3-1.7-2.2-3-2.3c-1.3,0-2.6-0.1-3.9,0c-1.9,0.1-3.7-0.3-5.5-1.1
		c-2.8-1.2-5.5-0.9-8,0.9c-1.2,0.8-2.1,2-3.6,2.4c0.9,2.9,1.7,5.7,2.6,8.6c1.2-0.8,2.4-1.5,3.5-2.2c0.8-0.5,1.7-0.7,2.6-0.5
		c1,0.2,1.9,0.4,2.9,0.5c2,0.4,4,0.8,6.1,1.1c2,0.2,3.9-0.2,5.5-1.4c2.9-2,5.7-3.9,8.6-5.9C51.8,30.6,53.1,29.7,54.4,28.8z
		 M11.4,28.5c0.7,5.5,1.3,10.9,2,16.3c2.8,0,5.5,0,8.2,0c0-0.1,0-0.1,0-0.1c-1.6-5.3-3.2-10.6-4.8-15.8c0-0.1-0.3-0.3-0.4-0.3
		c-0.6,0-1.2,0-1.8,0C13.5,28.5,12.5,28.5,11.4,28.5z M43.2,29.6c0.2,0.4,0.5,0.9,0.7,1.3c1.8-1,3.6-2,5.4-2.9
		c-0.5-0.6-1.4-0.9-2.1-0.5C45.9,28.2,44.6,28.9,43.2,29.6z M40.7,28c0.5,0.2,0.9,0.5,1.4,0.7c0.1,0,0.2,0.1,0.3,0
		c0.8-0.4,1.6-0.9,2.5-1.3C43.3,26.5,42,27.2,40.7,28z"/>
</g>
<path d="M17.4,45c-1,0-1.9-0.8-1.9-1.9c0-1,0.9-1.9,1.9-1.9s1.9,0.9,1.9,1.9C19.2,44.2,18.4,45,17.4,45z M18.1,43.2
	c0-0.3-0.3-0.7-0.7-0.7c-0.4,0-0.7,0.3-0.7,0.7s0.3,0.7,0.7,0.7C17.7,43.8,18.1,43.5,18.1,43.2z"/>
</svg>
