<?xml version="1.0" encoding="utf-8"?>
<!-- Generator: Adobe Illustrator 25.3.0, SVG Export Plug-In . SVG Version: 6.00 Build 0)  -->
<svg version="1.1" id="Layer_1" xmlns="http://www.w3.org/2000/svg" xmlns:xlink="http://www.w3.org/1999/xlink" x="0px" y="0px"
	 viewBox="0 0 75 89" style="enable-background:new 0 0 75 89;" xml:space="preserve">
<style type="text/css">
	.st0{fill:#FECA40;}
</style>
<path class="st0" d="M58,20c0.7,0,1.3,0,2,0c1,0.2,1.9,0.4,2.8,0.8c2.6,1,4.4,3,5.8,5.3c1.7,2.7,2.8,5.6,3.6,8.6
	c1.4,5,2.1,10.1,2.4,15.2c0.1,0.9,0.1,1.8,0.2,2.7c0,0.8,0,1.7,0,2.5c0,0.1-0.1,0.2-0.1,0.3c-0.3,1.9-0.6,3.8-1,5.7
	c-1.4,6-4,11.5-8.2,16C59.2,84.2,51,87.8,41.6,88.7c-1.1,0.1-2.2,0.2-3.3,0.3c-1.4,0-2.8,0-4.2,0c-0.2,0-0.3-0.1-0.5-0.1
	c-1.3-0.1-2.5-0.2-3.8-0.4C21.2,87.2,14.3,83.1,9,76.4c-3.7-4.6-6.1-9.9-7.7-15.5c-0.6-2-1.1-4-1.3-6.1c-0.2-3.3,0.5-6.5,2.2-9.3
	c2.1-3.5,5.2-5.8,8.8-7.5c2.8-1.2,5.7-2,8.7-2.3c4-0.4,7.9-1.5,11.7-2.8c8.1-2.9,15.6-7,22.9-11.6c0.4-0.3,0.9-0.5,1.4-0.6
	C56.5,20.3,57.3,20.2,58,20z"/>
<g>
	<g>
		<g>
			<path d="M35.1,43.9c-8,0-14.5-6.5-14.5-14.5c0-8,6.5-14.5,14.5-14.5s14.5,6.5,14.5,14.5C49.6,37.4,43.1,43.9,35.1,43.9z
				 M35.1,16.8c-6.9,0-12.6,5.7-12.6,12.6s5.7,12.6,12.6,12.6c6.9,0,12.6-5.7,12.6-12.6S42,16.8,35.1,16.8z"/>
		</g>
		<g>
			<rect x="37.2" y="33.9" width="10.1" height="1.9"/>
		</g>
		<g>
			<rect x="22.7" y="33.9" width="9.8" height="1.9"/>
		</g>
		<g>
			<path d="M35,38c-1.7,0-3.1-1.4-3.1-3.1c0-1.7,1.4-3.1,3.1-3.1c1.7,0,3.1,1.4,3.1,3.1C38.1,36.6,36.7,38,35,38z M35,33.6
				c-0.7,0-1.2,0.5-1.2,1.2s0.5,1.2,1.2,1.2s1.2-0.5,1.2-1.2S35.7,33.6,35,33.6z"/>
		</g>
		<g>
			<rect x="34" y="23.9" width="1.9" height="8.8"/>
		</g>
		<g>
			<rect x="34.1" y="15.8" width="1.9" height="3.9"/>
		</g>
		<g>
			<rect x="43.8" y="22.9" transform="matrix(0.7071 -0.7071 0.7071 0.7071 -3.5969 39.0201)" width="3" height="1.9"/>
		</g>
		<g>
			<rect x="24.2" y="22.4" transform="matrix(0.7072 -0.707 0.707 0.7072 -9.501 24.7627)" width="1.9" height="3"/>
		</g>
	</g>
	<path d="M58.3,29.4c0,1.3-0.1,2.7-0.3,3.9l-1-1.2l-1.1,0.5l-0.2,0.1c0.2-1.1,0.3-2.2,0.3-3.4c0-0.3,0-0.7,0-1
		c0-0.9-0.1-1.7-0.3-2.6c-0.9-4.9-3.5-9.3-7.2-12.3c-0.7-0.6-1.4-1.1-2.1-1.5c-3.2-2.1-7-3.3-11.1-3.3c-10.2,0-18.7,7.4-20.4,17.1
		l3.6-2.2l1.3,2.1l-5.2,3.2L13,29.7l-1-0.9l-4.7-4.3l1.7-1.8l3.3,3.1C14,14.7,23.6,6.2,35.1,6.2c4.4,0,8.6,1.3,12.1,3.4
		c0.7,0.4,1.4,0.9,2,1.4c4.7,3.6,7.9,9,8.8,15.1c0.1,0.8,0.2,1.6,0.2,2.5C58.3,28.9,58.3,29.1,58.3,29.4z"/>
	<path d="M27.1,49.3h-5C15.9,45.1,12,38.1,12,30.2c0-0.2,0-0.4,0-0.6l1,0.9l1.4-0.9c0,0.2,0,0.3,0,0.5
		C14.4,38.8,19.6,46.1,27.1,49.3z"/>
	<g>
		<path d="M71,15.9c0,7-5.7,12.7-12.7,12.7c0-0.8-0.1-1.7-0.2-2.5h0.2c5.6,0,10.2-4.6,10.2-10.2c0-5.6-4.6-10.2-10.2-10.2
			c-1.5,0-3,0.3-4.2,0.9L58.1,8l-0.8,2.3l-5.8-2l-1.6-0.5L50,6.3L50.4,0l2.5,0.1l-0.3,4.4c1.7-0.9,3.7-1.4,5.7-1.4
			C65.3,3.2,71,8.9,71,15.9z"/>
	</g>
	<g>
		<path d="M72.6,51.3l-4.7,6.2l-2-1.5l2.7-3.5H35.1c3.7,0,7.3-0.9,10.4-2.5h23.1l-2.7-3.5l2-1.5L72.6,51.3z"/>
	</g>
	<g>
		<path d="M62,39.3l-1.9,1.6l-2.8-3.3C55.2,43,51.1,47.5,46,50.1c-3.1,1.6-6.6,2.5-10.4,2.5H2.4v-2.5h33.2c8.7,0,16.2-5.4,19.3-13.1
			l-4,1.8l-1-2.2l5.7-2.6l0.2-0.1l1.1-0.5l1,1.2l0.2,0.2L62,39.3z"/>
	</g>
</g>
</svg>
