<?xml version="1.0" encoding="utf-8"?>
<!-- Generator: Adobe Illustrator 25.3.0, SVG Export Plug-In . SVG Version: 6.00 Build 0)  -->
<svg version="1.1" id="Layer_1" xmlns="http://www.w3.org/2000/svg" xmlns:xlink="http://www.w3.org/1999/xlink" x="0px" y="0px"
	 viewBox="0 0 66 68.1" style="enable-background:new 0 0 66 68.1;" xml:space="preserve">
<style type="text/css">
	.st0{fill:#35CD72;}
</style>
<path class="st0" d="M-0.1,36.1c0-0.4,0-0.8,0-1.2c0-0.1,0-0.2,0.1-0.3c0.1-0.6,0.2-1.1,0.3-1.7c0.8-2.7,2.6-4.4,4.9-5.7
	c0.1,0,0.1,0,0.2-0.1c2-0.5,4.1-0.9,6.1-1.5c5.3-1.5,10.5-3.3,15.5-5.8c2.8-1.4,5.5-3,8-5c1.4-1.2,3-2.3,4.6-3.1
	c2.5-1.3,5.2-2.1,8-2.2c2.9-0.1,5.5,0.7,7.9,2.3c1.1,0.7,2.1,1.5,2.9,2.6c1.9,2.6,3.5,5.5,4.7,8.5c1.5,3.7,2.5,7.5,2.8,11.5
	c0.2,2.4,0,4.8-0.4,7.2c-0.6,3.3-1.8,6.4-3.5,9.2c-3,5-7,8.9-11.7,12.1C45.4,66.2,40,68,34.1,68.1c-2.6,0-5.2-0.3-7.8-1
	c-3.8-1-7.2-2.8-10.4-5.1c-1-0.7-2-1.4-2.9-2.3c-2-2-3.8-4.2-5.5-6.5c-2.2-2.9-4.2-6-5.7-9.4c-0.9-1.9-1.6-3.9-1.9-6.1
	C0,37.2,0,36.7-0.1,36.1z"/>
<g>
	<g>
		<path d="M46,25.8l-11.9-6.9c-0.6-0.3-1.3-0.3-1.9,0l-11.9,6.9c-0.6,0.3-1,1-1,1.7v13.7c0,0.7,0.4,1.3,1,1.7l11.9,6.9
			c0.3,0.2,0.6,0.3,1,0.3c0.3,0,0.7-0.1,1-0.3l5.7-3.3c0.3-0.2,0.5-0.6,0.3-1c-0.2-0.3-0.6-0.5-1-0.3l-5.3,3v-13L45.5,28v13.1
			c0,0.2-0.1,0.4-0.2,0.4l-3.2,1.8c-0.3,0.2-0.5,0.6-0.3,1c0.2,0.3,0.6,0.5,1,0.3l3.2-1.8c0.6-0.4,1-1,1-1.7V27.5
			C46.9,26.8,46.6,26.1,46,25.8z M32.3,48.2L21,41.6c-0.2-0.1-0.3-0.3-0.3-0.4V28l11.6,7.2C32.3,35.2,32.3,48.2,32.3,48.2z M33,34
			l-11.6-7.2l11.5-6.6c0.2-0.1,0.4-0.1,0.5,0l11.4,6.6L33,34z"/>
	</g>
	<g>
		<rect x="32.4" y="6.8" width="1.4" height="12.2"/>
	</g>
	<g>
		<path d="M28.5,22.2H27V10.6H16.8c-0.4,0-0.7-0.3-0.7-0.7V6.8h1.4v2.4h10.3c0.4,0,0.7,0.3,0.7,0.7V22.2z"/>
	</g>
	<g>
		<path d="M39.3,22.2h-1.4V9.9c0-0.4,0.3-0.7,0.7-0.7h10.3V6.8h1.4v3.1c0,0.4-0.3,0.7-0.7,0.7H39.3V22.2z"/>
	</g>
	<g>
		<path d="M16.8,7.9c-2,0-3.6-1.6-3.6-3.6s1.6-3.6,3.6-3.6s3.6,1.6,3.6,3.6C20.5,6.3,18.9,7.9,16.8,7.9z M16.8,2.7
			c-0.8,0-1.5,0.7-1.5,1.5s0.7,1.5,1.5,1.5c0.8,0,1.5-0.7,1.5-1.5S17.7,2.7,16.8,2.7z"/>
	</g>
	<g>
		<path d="M33.1,7.9c-2,0-3.6-1.6-3.6-3.6s1.6-3.6,3.6-3.6s3.6,1.6,3.6,3.6C36.8,6.3,35.1,7.9,33.1,7.9z M33.1,2.7
			c-0.8,0-1.5,0.7-1.5,1.5s0.7,1.5,1.5,1.5s1.5-0.7,1.5-1.5S33.9,2.7,33.1,2.7z"/>
	</g>
	<g>
		<path d="M49.3,7.9c-2,0-3.6-1.6-3.6-3.6s1.6-3.6,3.6-3.6s3.6,1.6,3.6,3.6C52.9,6.3,51.3,7.9,49.3,7.9z M49.3,2.7
			c-0.8,0-1.5,0.7-1.5,1.5s0.7,1.5,1.5,1.5s1.5-0.7,1.5-1.5S50.1,2.7,49.3,2.7z"/>
	</g>
</g>
</svg>
