<?xml version="1.0" encoding="utf-8"?>
<!-- Generator: Adobe Illustrator 25.3.0, SVG Export Plug-In . SVG Version: 6.00 Build 0)  -->
<svg version="1.1" id="Layer_1" xmlns="http://www.w3.org/2000/svg" xmlns:xlink="http://www.w3.org/1999/xlink" x="0px" y="0px"
	 viewBox="0 0 75 89" style="enable-background:new 0 0 75 89;" xml:space="preserve">
<style type="text/css">
	.st0{fill:#FF8761;}
	.st1{fill:none;stroke:#000000;stroke-width:2;stroke-miterlimit:10;}
	.st2{fill:none;stroke:#000000;stroke-width:2;stroke-linecap:round;stroke-miterlimit:10;}
</style>
<path class="st0" d="M58,15.1c0.7,0,1.3,0,2,0c1,0.2,1.9,0.4,2.8,0.8c2.6,1,4.4,3,5.8,5.3c1.7,2.7,2.8,5.6,3.6,8.6
	c1.4,5,2.1,10.1,2.4,15.2c0.1,0.9,0.1,1.8,0.2,2.7c0,0.8,0,1.7,0,2.5c0,0.1-0.1,0.2-0.1,0.3c-0.3,1.9-0.6,3.8-1,5.7
	c-1.4,6-4,11.5-8.2,16C59,79.3,50.8,82.8,41.4,83.8c-1.1,0.1-2.2,0.2-3.3,0.3c-1.4,0-2.8,0-4.2,0c-0.2,0-0.3-0.1-0.5-0.1
	c-1.3-0.1-2.5-0.2-3.8-0.4c-8.5-1.3-15.4-5.4-20.7-12.1C5.2,66.9,2.8,61.6,1.2,56c-0.6-2-1.1-4-1.3-6.1c-0.2-3.3,0.5-6.5,2.2-9.3
	C4.3,37,7.4,34.7,11,33c2.8-1.3,5.7-2,8.7-2.3c4-0.4,7.9-1.5,11.7-2.8c8.1-2.9,15.6-7,22.9-11.6c0.4-0.3,0.9-0.5,1.4-0.6
	C56.5,15.4,57.2,15.3,58,15.1z"/>
<g>
	<circle class="st1" cx="16.3" cy="19.7" r="5.1"/>
	<path class="st2" d="M27.4,41.9"/>
	<path class="st2" d="M5.3,41.9c0-6.1,4.9-11.1,11.1-11.1c3.8,0,6.9,1.6,8.9,4.4"/>
	<circle class="st1" cx="37.4" cy="15.2" r="6.3"/>
	<path class="st2" d="M23.6,41.7c0-7.6,6.2-13.7,13.7-13.7S51,34.2,51,41.7"/>
	<circle class="st1" cx="58.4" cy="19.7" r="5.1"/>
	<path class="st2" d="M49.5,35.4c2-3,5.1-4.4,8.9-4.4c6.1,0,11.1,4.9,11.1,11.1"/>
	<path class="st2" d="M47.3,41.9"/>
</g>
</svg>
