<?xml version="1.0" encoding="utf-8"?>
<!-- Generator: Adobe Illustrator 25.3.0, SVG Export Plug-In . SVG Version: 6.00 Build 0)  -->
<svg version="1.1" id="Layer_1" xmlns="http://www.w3.org/2000/svg" xmlns:xlink="http://www.w3.org/1999/xlink" x="0px" y="0px"
	 viewBox="0 0 66 59.3" style="enable-background:new 0 0 66 59.3;" xml:space="preserve">
<style type="text/css">
	.st0{fill:#FFCA40;}
	.st1{fill:none;stroke:#000000;stroke-miterlimit:10;}
</style>
<path class="st0" d="M6.7,3.4c0.3-0.3,0.6-0.6,0.9-1c0.1-0.1,0.2-0.1,0.2-0.2c0.5-0.3,0.9-0.7,1.4-1c2.4-1.4,5-1.5,7.7-0.8
	c0.1,0,0.1,0.1,0.2,0.1c1.9,1.1,3.7,2.2,5.6,3.2c5,2.6,10.2,4.9,15.6,6.5c3.1,0.9,6.2,1.6,9.5,1.8c1.9,0.1,3.8,0.4,5.7,0.9
	c2.8,0.8,5.3,2,7.5,3.9s3.7,4.4,4.3,7.3c0.3,1.3,0.5,2.6,0.4,3.9c-0.4,3.3-1.2,6.5-2.4,9.6c-1.4,3.8-3.3,7.4-5.9,10.6
	c-1.6,1.9-3.4,3.7-5.4,5.1c-2.8,2-5.8,3.5-9,4.5c-5.7,1.6-11.4,1.8-17.2,0.8c-6-1-11.3-3.3-15.8-7.4c-2-1.8-3.7-3.9-5.1-6.2
	c-2.1-3.4-3.4-7.1-4.2-11c-0.3-1.2-0.5-2.5-0.5-3.8c-0.1-2.9,0.1-5.8,0.4-8.7c0.4-3.7,1-7.4,2.2-11c0.7-2.1,1.6-4.1,2.8-5.9
	C6,4.3,6.4,3.8,6.7,3.4z"/>
<image style="display:none;overflow:visible;" width="612" height="612" xlink:href="istockphoto-1198687585-612x612.jpg"  transform="matrix(0.24 0 0 0.24 -26.6 -97.52)">
</image>
<g>
	<path d="M-106.4-7.2c-4,0-7.2,3.2-7.2,7.2s3.2,7.2,7.2,7.2c4,0,7.2-3.2,7.2-7.2S-102.4-7.2-106.4-7.2z M-106.4,6.2
		c-3.4,0-6.2-2.8-6.2-6.2s2.8-6.2,6.2-6.2s6.2,2.8,6.2,6.2S-103,6.2-106.4,6.2z"/>
</g>
<g>
	<g>
		<path d="M51.2,34.2v1.1h-6.4v-2h2.8v-4.4c0-4.8-3.8-8.7-8.6-9c-0.2,0-0.4,0.1-0.6,0.2l-4.7,3.4c-0.6,0.4-1.4,0.4-2-0.1l-4-3.4
			c-0.2-0.1-0.4-0.2-0.6-0.2c-4.8,0.3-8.6,4.2-8.6,9v4.4h2.8v2h-6.4v-1.1h2.5v-5.3c0-5.4,4.3-9.8,9.7-10.1c0.5,0,0.9,0.1,1.3,0.4
			l4.1,3.4c0.2,0.1,0.4,0.2,0.6,0l4.7-3.4c0.4-0.3,0.8-0.4,1.3-0.4c5.4,0.3,9.7,4.7,9.7,10.1v5.3H51.2z"/>
	</g>
	<g>
		<path d="M21.3,25.8v15.9h23.5V25.8H21.3z M43.7,40.6H22.3V26.8h21.3V40.6z"/>
	</g>
	<polygon points="21.3,38.5 21.3,41.7 21.2,41.7 18,38.5 	"/>
	<polygon points="48,38.5 44.8,41.7 44.7,41.7 44.7,38.5 	"/>
	<path class="st1" d="M33,0.6h1.9c0.3,0,1.9,0.2,3,1.6c0.7,0.8,0.9,1.7,0.9,2.2c0,1.2,0.1,2.4,0.1,3.6c0.2,0.1,0.5,0.3,0.7,0.5
		c0.9,1,0.6,2.9-0.4,3.8c-0.2,0.2-0.4,0.4-0.8,0.5c0,0.5-0.3,2.2-1.8,3.7c-1.3,1.2-3,1.5-3.5,1.5c-0.5-0.1-2.2-0.3-3.5-1.5
		c-1.5-1.4-1.8-3.2-1.8-3.7c-0.4-0.1-0.7-0.3-0.8-0.5c-1-1-1.2-2.8-0.4-3.8c0.2-0.2,0.5-0.4,0.7-0.5c0-1.2,0.1-2.4,0.1-3.6
		c0.1-0.4,0.2-1.3,0.9-2.2c1.1-1.3,2.6-1.5,3-1.6H33"/>
	<path class="st1" d="M28.8,6.5c0.2,0,0.8,0.2,1.3-0.1c0.7-0.3,1.1-1.1,1.1-2c0,0.2,0.2,1.1,1,1.7c0.4,0.3,0.9,0.4,1.1,0.5
		c1.3,0,2.5,0,3.8,0"/>
	<g>
		<polyline class="st1" points="31.4,30.4 27.6,33.5 31.4,37.1 		"/>
		<polyline class="st1" points="34.6,30.4 38.4,33.5 34.6,37.1 		"/>
	</g>
</g>
</svg>
