<?xml version="1.0" encoding="utf-8"?>
<!-- Generator: Adobe Illustrator 25.3.0, SVG Export Plug-In . SVG Version: 6.00 Build 0)  -->
<svg version="1.1" id="Layer_1" xmlns="http://www.w3.org/2000/svg" xmlns:xlink="http://www.w3.org/1999/xlink" x="0px" y="0px"
	 viewBox="0 0 75 89" style="enable-background:new 0 0 75 89;" xml:space="preserve">
<style type="text/css">
	.st0{fill:#1E69F8;}
	.st1{fill:none;stroke:#000000;stroke-width:2;stroke-miterlimit:10;}
</style>
<path class="st0" d="M58,20c0.7,0,1.3,0,2,0c1,0.2,1.9,0.4,2.8,0.8c2.6,1,4.4,3,5.8,5.3c1.7,2.7,2.8,5.6,3.6,8.6
	c1.4,5,2.1,10.1,2.4,15.2c0.1,0.9,0.1,1.8,0.2,2.7c0,0.8,0,1.7,0,2.5c0,0.1-0.1,0.2-0.1,0.3c-0.3,1.9-0.6,3.8-1,5.7
	c-1.4,6-4,11.5-8.2,16C59.2,84.2,51,87.8,41.6,88.7c-1.1,0.1-2.2,0.2-3.3,0.3c-1.4,0-2.8,0-4.2,0c-0.2,0-0.3-0.1-0.5-0.1
	c-1.3-0.1-2.5-0.2-3.8-0.4C21.2,87.2,14.3,83.1,9,76.4c-3.7-4.6-6.1-9.9-7.7-15.5c-0.6-2-1.1-4-1.3-6.1c-0.2-3.3,0.5-6.5,2.2-9.3
	c2.1-3.5,5.2-5.8,8.8-7.5c2.8-1.2,5.7-2,8.7-2.3c4-0.4,7.9-1.5,11.7-2.8c8.1-2.9,15.6-7,22.9-11.6c0.4-0.3,0.9-0.5,1.4-0.6
	C56.5,20.3,57.3,20.2,58,20z"/>
<g>
	<g>
		<path d="M40.1,1.8c-0.9-0.6-2-0.9-3.2-0.9c-1.2,0-2.2,0.3-3.2,0.9c-1.8,1.1-3,3-3,5.3c0,3.4,2.8,6.2,6.2,6.2
			c3.4,0,6.2-2.8,6.2-6.2C43.1,4.8,41.9,2.9,40.1,1.8z M37,11c-2.2,0-4-1.8-4-4s1.8-4,4-4c2.2,0,4,1.8,4,4S39.1,11,37,11z"/>
		<path d="M28.9,21H30c0-2.6,2.1-4.8,4.8-4.8h4.4c2.6,0,4.8,2.1,4.8,4.8H45h1.1c0-3.8-3.1-7-7-7h-4.4c-3.8,0-7,3.1-7,7H28.9z"/>
	</g>
	<g>
		<path d="M20.2,47.5c-0.9-0.6-2-0.9-3.2-0.9c-1.2,0-2.2,0.3-3.2,0.9c-1.8,1.1-3,3-3,5.3c0,3.4,2.8,6.2,6.2,6.2
			c3.4,0,6.2-2.8,6.2-6.2C23.2,50.6,22,48.6,20.2,47.5z M17,56.7c-2.2,0-4-1.8-4-4s1.8-4,4-4c2.2,0,4,1.8,4,4S19.2,56.7,17,56.7z"/>
		<path d="M9,66.7h1.1c0-2.6,2.1-4.7,4.8-4.7h4.4c2.6,0,4.8,2.1,4.8,4.7h1.1h1.1c0-3.8-3.1-6.9-7-6.9h-4.4c-3.8,0-7,3.1-7,6.9H9z"/>
	</g>
	<g>
		<path d="M61.1,47.6c-0.9-0.6-2-0.9-3.2-0.9c-1.2,0-2.2,0.3-3.2,0.9c-1.8,1.1-3,3-3,5.3c0,3.4,2.8,6.2,6.2,6.2
			c3.4,0,6.2-2.8,6.2-6.2C64.1,50.6,62.9,48.7,61.1,47.6z M58,56.8c-2.2,0-4-1.8-4-4s1.8-4,4-4c2.2,0,4,1.8,4,4S60.2,56.8,58,56.8z"
			/>
		<path d="M49.9,66.8H51c0-2.6,2.1-4.8,4.8-4.8h4.4c2.6,0,4.7,2.1,4.7,4.8H66h1.1c0-3.8-3.1-7-6.9-7h-4.4c-3.8,0-7,3.1-7,7H49.9z"/>
	</g>
	<line class="st1" x1="37" y1="39.7" x2="37" y2="21"/>
	<line class="st1" x1="48.8" y1="52.8" x2="36.7" y2="38.6"/>
	<line class="st1" x1="25.7" y1="54.2" x2="37" y2="39.2"/>
</g>
</svg>
